<?xml version="1.0" standalone="no"?>
<!DOCTYPE svg PUBLIC "-//W3C//DTD SVG 20010904//EN"
 "http://www.w3.org/TR/2001/REC-SVG-20010904/DTD/svg10.dtd">
<svg version="1.0" xmlns="http://www.w3.org/2000/svg"
 width="100.000000pt" height="100.000000pt" viewBox="0 0 100.000000 100.000000"
 preserveAspectRatio="xMidYMid meet">
<metadata>
Created by potrace 1.11, written by Peter Selinger 2001-2013
</metadata>
<g transform="translate(0.000000,100.000000) scale(0.100000,-0.100000)"
fill="#000000" stroke="none">
<path d="M110 829 c-13 -5 -28 -15 -32 -22 -4 -7 -8 -143 -8 -303 0 -269 1
-292 18 -307 17 -15 59 -17 405 -17 374 0 388 1 407 20 19 19 20 33 20 308 0
281 -1 289 -21 308 -20 18 -43 19 -393 21 -230 1 -380 -2 -396 -8z m195 -245
c21 -30 44 -59 50 -64 8 -7 27 12 59 55 42 58 51 65 82 65 l34 0 0 -150 0
-150 -35 0 -35 0 0 102 0 102 -49 -68 -49 -68 -48 69 -49 68 -3 -103 -3 -102
-29 0 -30 0 0 150 0 150 33 0 c27 0 38 -8 72 -56z m455 -44 l0 -100 32 0 32 0
-49 -50 -49 -50 -49 47 -48 48 30 3 31 3 0 100 0 99 35 0 35 0 0 -100z"/>
</g>
</svg>
