<?xml version="1.0" encoding="iso-8859-1"?>
<!-- Generator: Adobe Illustrator 19.0.0, SVG Export Plug-In . SVG Version: 6.00 Build 0)  -->
<svg version="1.1" id="Layer_1" xmlns="http://www.w3.org/2000/svg" xmlns:xlink="http://www.w3.org/1999/xlink" x="0px" y="0px"
	 viewBox="0 0 512 512" style="enable-background:new 0 0 512 512;" xml:space="preserve">
<circle style="fill:#FFC61B;" cx="256" cy="256" r="256"/>
<path style="fill:#EAA22F;" d="M509.095,294.662L362.929,148.496L213.585,303.911l-64.683,59.439l146.235,145.677
	C405.344,492.118,492.391,404.933,509.095,294.662z"/>
<circle style="fill:#FFFFFF;" cx="256" cy="256" r="142.222"/>
<path style="fill:#D0D1D3;" d="M256,113.778c-0.193,0-0.381,0.014-0.574,0.014v284.415c0.193,0,0.381,0.014,0.574,0.014
	c78.548,0,142.222-63.676,142.222-142.222S334.548,113.778,256,113.778z"/>
<path style="fill:#FF7F4F;" d="M256,104.296c-83.649,0-151.704,68.055-151.704,151.704S172.351,407.704,256,407.704
	S407.704,339.649,407.704,256S339.649,104.296,256,104.296z M350.613,246.519c-0.615-16.27-2.801-32.063-6.458-46.887
	c2.577,1.329,5.106,2.703,7.532,4.16c19.952,11.971,32.385,26.879,35.955,42.727H350.613z M331.636,246.519h-66.155v-66.155
	c20.009,0.815,39.121,4.201,56.256,9.897C327.435,207.398,330.821,226.509,331.636,246.519z M265.481,161.387v-37.029
	c15.848,3.568,30.756,16.001,42.727,35.954c1.457,2.427,2.829,4.954,4.158,7.532C297.544,164.186,281.752,162.002,265.481,161.387z
	 M246.519,124.357v37.03c-16.27,0.615-32.063,2.801-46.887,6.458c1.329-2.577,2.703-5.104,4.158-7.532
	C215.762,140.359,230.671,127.926,246.519,124.357z M246.519,180.364v66.155h-66.155c0.815-20.009,4.201-39.121,9.897-56.258
	C207.398,184.565,226.509,181.179,246.519,180.364z M161.387,246.519h-37.029c3.568-15.848,16.001-30.756,35.956-42.727
	c2.427-1.457,4.954-2.829,7.532-4.16C164.186,214.456,162.002,230.248,161.387,246.519z M161.387,265.481
	c0.615,16.27,2.801,32.063,6.458,46.887c-2.577-1.329-5.106-2.703-7.532-4.16c-19.954-11.971-32.387-26.879-35.955-42.727H161.387z
	 M180.364,265.481h66.155v66.155c-20.009-0.815-39.121-4.201-56.256-9.897C184.565,304.602,181.179,285.491,180.364,265.481z
	 M246.519,350.613v37.029c-15.848-3.568-30.756-16.001-42.727-35.954c-1.457-2.427-2.829-4.954-4.158-7.532
	C214.456,347.813,230.248,349.998,246.519,350.613z M265.481,387.643v-37.029c16.27-0.615,32.063-2.801,46.887-6.458
	c-1.329,2.577-2.703,5.104-4.158,7.532C296.238,371.641,281.329,384.074,265.481,387.643z M265.481,331.636v-66.155h66.155
	c-0.815,20.009-4.201,39.121-9.897,56.258C304.602,327.435,285.491,330.821,265.481,331.636z M350.613,265.481h37.029
	c-3.568,15.848-16.001,30.756-35.955,42.727c-2.427,1.457-4.954,2.829-7.532,4.16C347.813,297.544,349.998,281.752,350.613,265.481z
	 M374.65,196.587c-4.065-3.165-8.444-6.201-13.205-9.057c-7.671-4.603-16.031-8.623-24.904-12.071
	c-3.448-8.873-7.468-17.234-12.071-24.904c-2.857-4.76-5.892-9.14-9.057-13.205C340.961,150.197,361.805,171.041,374.65,196.587z
	 M196.587,137.35c-3.165,4.065-6.201,8.444-9.057,13.205c-4.603,7.67-8.623,16.031-12.071,24.904
	c-8.875,3.448-17.234,7.47-24.904,12.071c-4.76,2.857-9.14,5.892-13.205,9.057C150.197,171.041,171.041,150.197,196.587,137.35z
	 M137.35,315.413c4.065,3.165,8.444,6.201,13.205,9.057c7.67,4.603,16.031,8.623,24.904,12.071
	c3.448,8.873,7.468,17.234,12.071,24.904c2.857,4.76,5.892,9.14,9.057,13.205C171.041,361.805,150.197,340.959,137.35,315.413z
	 M315.413,374.65c3.165-4.065,6.201-8.444,9.057-13.205c4.603-7.67,8.623-16.031,12.071-24.904
	c8.875-3.448,17.234-7.468,24.904-12.071c4.76-2.857,9.14-5.892,13.205-9.057C361.805,340.959,340.961,361.805,315.413,374.65z"/>
<path style="fill:#D35933;" d="M256,104.296c-0.191,0-0.383,0.007-0.574,0.007v303.394c0.191,0,0.383,0.007,0.574,0.007
	c83.649,0,151.704-68.055,151.704-151.704S339.649,104.296,256,104.296z M374.65,196.587c-4.065-3.165-8.444-6.201-13.205-9.057
	c-7.671-4.603-16.031-8.623-24.904-12.071c-3.448-8.873-7.468-17.234-12.071-24.904c-2.857-4.76-5.892-9.14-9.057-13.205
	C340.961,150.197,361.805,171.041,374.65,196.587z M387.643,246.519h-37.029c-0.615-16.27-2.801-32.063-6.458-46.887
	c2.577,1.329,5.106,2.703,7.532,4.16C371.641,215.762,384.074,230.671,387.643,246.519z M265.481,124.357
	c15.848,3.568,30.756,16.001,42.727,35.954c1.457,2.427,2.829,4.954,4.158,7.532c-14.824-3.656-30.617-5.841-46.887-6.458v-37.028
	H265.481z M265.481,180.364c20.009,0.815,39.121,4.201,56.256,9.897c5.696,17.137,9.082,36.247,9.897,56.258h-66.153V180.364z
	 M265.481,265.481h66.155c-0.815,20.009-4.201,39.121-9.897,56.258c-17.137,5.696-36.247,9.082-56.256,9.897v-66.155H265.481z
	 M308.208,351.689c-11.971,19.952-26.879,32.385-42.727,35.954v-37.029c16.27-0.615,32.063-2.801,46.887-6.458
	C311.037,346.734,309.665,349.262,308.208,351.689z M315.413,374.65c3.165-4.065,6.201-8.444,9.057-13.205
	c4.603-7.67,8.623-16.031,12.071-24.904c8.875-3.448,17.234-7.468,24.904-12.071c4.76-2.857,9.14-5.892,13.205-9.057
	C361.805,340.959,340.961,361.805,315.413,374.65z M351.689,308.208c-2.427,1.457-4.954,2.829-7.532,4.16
	c3.656-14.824,5.841-30.617,6.458-46.887h37.029C384.074,281.329,371.641,296.238,351.689,308.208z"/>
<path style="fill:#273B7A;" d="M375.884,426.667c-5.718,0-11.433-2.181-15.794-6.542l-91.981-91.982
	c-8.725-8.723-8.725-22.866,0-31.589c8.725-8.726,22.868-8.726,31.589,0l91.981,91.982c8.725,8.723,8.725,22.866,0,31.589
	C387.319,424.486,381.6,426.667,375.884,426.667z"/>
<path style="fill:#121149;" d="M268.109,296.551c-8.725,8.723-8.725,22.866,0,31.589l91.982,91.982
	c4.361,4.363,10.076,6.542,15.794,6.542c5.716,0,11.435-2.181,15.794-6.542c0.048-0.048,0.088-0.102,0.136-0.152L268.26,296.415
	C268.21,296.464,268.157,296.503,268.109,296.551z"/>
<circle style="fill:#71E2EF;" cx="253.242" cy="281.686" r="65.041"/>
<path style="fill:#38C6D9;" d="M207.398,235.554c-0.048,0.048-0.1,0.091-0.148,0.14c-25.4,25.4-25.4,66.582,0,91.982
	c25.4,25.4,66.582,25.4,91.982,0c0.048-0.048,0.091-0.1,0.14-0.148L207.398,235.554z"/>
<path style="fill:#386895;" d="M253.242,357.204c-19.351,0-38.695-7.363-53.426-22.094c-29.458-29.46-29.458-77.39,0-106.848
	c29.46-29.456,77.391-29.456,106.849,0c14.27,14.27,22.128,33.244,22.128,53.426c0,20.18-7.858,39.153-22.13,53.424
	C291.938,349.837,272.587,357.204,253.242,357.204z M253.242,227.183c-13.964,0-27.929,5.315-38.559,15.946
	c-21.261,21.261-21.261,55.855,0,77.115c21.259,21.263,55.856,21.263,77.115,0c10.3-10.299,15.972-23.992,15.972-38.557
	c0-14.565-5.672-28.26-15.972-38.559C281.169,232.498,267.205,227.183,253.242,227.183z"/>
<path style="fill:#273B7A;" d="M291.94,320.097c-0.048,0.048-0.091,0.1-0.14,0.147c-21.259,21.261-55.856,21.261-77.115,0
	c-21.261-21.261-21.261-55.855,0-77.115c0.048-0.048,0.1-0.093,0.148-0.141l-14.867-14.867c-0.048,0.048-0.1,0.091-0.148,0.14
	c-29.458,29.46-29.458,77.39,0,106.848c14.731,14.731,34.075,22.094,53.426,22.094c19.346,0,38.697-7.366,53.424-22.094
	c0.048-0.048,0.093-0.1,0.141-0.148L291.94,320.097z"/>
<g>
	<path style="fill:#386895;" d="M305.736,374.698c-2.522,0-5.044-0.962-6.97-2.886c-3.848-3.849-3.848-10.088,0-13.938
		l30.661-30.661c3.849-3.848,10.088-3.848,13.938,0c3.848,3.849,3.848,10.088,0,13.938l-30.661,30.661
		C310.781,373.734,308.257,374.698,305.736,374.698z"/>
	<path style="fill:#386895;" d="M345.224,414.184c-2.522,0-5.044-0.962-6.968-2.886c-3.849-3.848-3.849-10.088-0.002-13.936
		l30.661-30.661c3.851-3.851,10.09-3.848,13.936-0.002c3.849,3.848,3.849,10.088,0.002,13.936l-30.66,30.661
		C350.268,413.222,347.746,414.184,345.224,414.184z"/>
</g>
<g>
	<path style="fill:#273B7A;" d="M314.242,342.399l-15.476,15.476c-3.848,3.849-3.848,10.088,0,13.938
		c1.924,1.924,4.448,2.886,6.968,2.886s5.044-0.962,6.968-2.886l15.475-15.475L314.242,342.399z"/>
	<path style="fill:#273B7A;" d="M353.73,381.886l-15.474,15.476c-3.848,3.848-3.848,10.088,0.002,13.936
		c1.924,1.924,4.444,2.886,6.968,2.886c2.522,0,5.044-0.962,6.968-2.888l15.474-15.474L353.73,381.886z"/>
</g>
<g>
</g>
<g>
</g>
<g>
</g>
<g>
</g>
<g>
</g>
<g>
</g>
<g>
</g>
<g>
</g>
<g>
</g>
<g>
</g>
<g>
</g>
<g>
</g>
<g>
</g>
<g>
</g>
<g>
</g>
</svg>
