<?xml version="1.0" standalone="no"?><!DOCTYPE svg PUBLIC "-//W3C//DTD SVG 1.1//EN" "http://www.w3.org/Graphics/SVG/1.1/DTD/svg11.dtd"><svg t="1677990422618" class="icon" viewBox="0 0 1024 1024" version="1.1" xmlns="http://www.w3.org/2000/svg" p-id="1415" xmlns:xlink="http://www.w3.org/1999/xlink" width="360" height="360"><path d="M512 0c-20.428928 0-38.304239 0-58.733167 2.553616-45.965087 5.107232-89.376559 17.875312-132.78803 33.197007 0 0 342.184539 339.630923 352.399002 352.399002L672.877805 28.089776c-10.214464-2.553616-20.428928-7.660848-30.643392-10.214464C601.376559 5.107232 557.965087 0 512 0L512 0 512 0z" p-id="1416" fill="#fb7185"></path><path d="M872.05985 148.109726c-12.76808-12.76808-28.089776-25.53616-43.411471-38.304239-35.750623-28.089776-76.608479-51.072319-117.466334-68.947631 0 0 2.553616 482.633416 0 497.955112l255.361596-255.361596c-5.107232-10.214464-10.214464-20.428928-15.321696-28.089776C930.793017 214.503741 902.703242 178.753117 872.05985 148.109726L872.05985 148.109726 872.05985 148.109726z" p-id="1417" fill="#fb7185"></path><path d="M984.418953 321.755611c0 0-339.630923 342.184539-352.399002 352.399002l362.613466 0c2.553616-10.214464 7.660848-20.428928 10.214464-30.643392 10.214464-40.857855 17.875312-86.822943 17.875312-132.78803 0-20.428928 0-38.304239-2.553616-58.733167C1012.508728 408.578554 999.740648 362.613466 984.418953 321.755611L984.418953 321.755611 984.418953 321.755611z" p-id="1418" fill="#fb7185"></path><path d="M478.802993 712.458853l255.361596 255.361596c10.214464-5.107232 20.428928-10.214464 28.089776-15.321696 38.304239-20.428928 74.054863-48.518703 104.698254-81.715711 12.76808-12.76808 25.53616-28.089776 38.304239-43.411471 28.089776-35.750623 51.072319-76.608479 68.947631-117.466334C979.311721 712.458853 496.678304 715.012469 478.802993 712.458853L478.802993 712.458853 478.802993 712.458853z" p-id="1419" fill="#fb7185"></path><path d="M348.568579 633.296758l0 362.613466c10.214464 2.553616 20.428928 7.660848 30.643392 10.214464 40.857855 10.214464 86.822943 17.875312 132.78803 17.875312 20.428928 0 38.304239 0 56.179551-2.553616 45.965087-5.107232 89.376559-17.875312 132.78803-33.197007C700.967581 985.695761 358.783042 643.511222 348.568579 633.296758L348.568579 633.296758 348.568579 633.296758z" p-id="1420" fill="#fb7185"></path><path d="M312.817955 480.0798l-255.361596 255.361596c5.107232 10.214464 10.214464 20.428928 15.321696 28.089776 20.428928 38.304239 48.518703 74.054863 81.715711 104.698254 12.76808 12.76808 28.089776 25.53616 43.411471 38.304239 35.750623 28.089776 76.608479 51.072319 117.466334 68.947631C312.817955 980.588529 310.264339 495.401496 312.817955 480.0798L312.817955 480.0798 312.817955 480.0798z" p-id="1421" fill="#fb7185"></path><path d="M21.705736 377.935162c-10.214464 40.857855-17.875312 86.822943-17.875312 132.78803 0 20.428928 0 38.304239 2.553616 58.733167 5.107232 45.965087 17.875312 89.376559 33.197007 132.78803 0 0 339.630923-342.184539 352.399002-352.399002L29.366584 349.845387C26.812968 357.506234 24.259352 367.720698 21.705736 377.935162L21.705736 377.935162 21.705736 377.935162z" p-id="1422" fill="#fb7185"></path><path d="M256.638404 68.947631C218.334165 91.930175 182.583541 117.466334 151.94015 150.663342 136.618454 163.431421 123.850374 178.753117 113.63591 194.074813c-28.089776 35.750623-51.072319 76.608479-68.947631 117.466334 0 0 482.633416-2.553616 497.955112 0l-255.361596-255.361596C274.513716 58.733167 266.852868 63.840399 256.638404 68.947631L256.638404 68.947631 256.638404 68.947631z" p-id="1423" fill="#fb7185"></path></svg>