<?xml version="1.0" encoding="iso-8859-1"?>
<!-- Generator: Adobe Illustrator 18.0.0, SVG Export Plug-In . SVG Version: 6.00 Build 0)  -->
<!DOCTYPE svg PUBLIC "-//W3C//DTD SVG 1.1//EN" "http://www.w3.org/Graphics/SVG/1.1/DTD/svg11.dtd">
<svg version="1.1" id="Capa_1" xmlns="http://www.w3.org/2000/svg" xmlns:xlink="http://www.w3.org/1999/xlink" x="0px" y="0px"
	 viewBox="0 0 317.215 317.215" style="enable-background:new 0 0 317.215 317.215;" xml:space="preserve">
<g>
	<path style="fill:#231F20;" d="M309.715,1.107h-71.223c-4.143,0-7.5,3.358-7.5,7.5v20c0,4.142,3.357,7.5,7.5,7.5h18.973
		l-57.129,57.127c-1.406,1.406-2.197,3.314-2.197,5.303c0,1.989,0.791,3.897,2.197,5.303l14.143,14.143
		c1.465,1.465,3.384,2.197,5.304,2.197c1.919,0,3.839-0.733,5.304-2.197l57.129-57.127V79.83c0,4.142,3.357,7.5,7.5,7.5h20
		c4.143,0,7.5-3.358,7.5-7.5V8.607C317.215,4.465,313.857,1.107,309.715,1.107z"/>
	<path style="fill:#231F20;" d="M59.75,36.107h18.973c4.143,0,7.5-3.358,7.5-7.5v-20c0-4.142-3.357-7.5-7.5-7.5H7.5
		c-4.143,0-7.5,3.358-7.5,7.5V79.83c0,4.142,3.357,7.5,7.5,7.5h20c4.143,0,7.5-3.358,7.5-7.5V60.857l57.125,57.126
		c1.465,1.464,3.385,2.197,5.305,2.197c1.919,0,3.839-0.733,5.305-2.197l14.142-14.143c1.406-1.406,2.196-3.314,2.196-5.303
		c0-1.989-0.79-3.897-2.196-5.303L59.75,36.107z"/>
	<path style="fill:#231F20;" d="M102.734,199.233c-2.93-2.929-7.678-2.929-10.609,0L35,256.358v-18.974c0-4.142-3.357-7.5-7.5-7.5
		h-20c-4.143,0-7.5,3.358-7.5,7.5v71.223c0,4.142,3.357,7.5,7.5,7.5h71.223c4.143,0,7.5-3.358,7.5-7.5v-20
		c0-4.142-3.357-7.5-7.5-7.5H59.75l57.126-57.125c1.406-1.406,2.196-3.314,2.196-5.303c0-1.989-0.79-3.897-2.196-5.303
		L102.734,199.233z"/>
	<path style="fill:#231F20;" d="M309.715,229.885h-20c-4.143,0-7.5,3.358-7.5,7.5v18.976l-57.13-57.127
		c-2.929-2.929-7.677-2.929-10.606,0l-14.143,14.143c-1.406,1.406-2.197,3.314-2.197,5.303c0,1.989,0.791,3.897,2.198,5.303
		l57.128,57.125h-18.973c-4.143,0-7.5,3.358-7.5,7.5v20c0,4.142,3.357,7.5,7.5,7.5h71.223c4.143,0,7.5-3.358,7.5-7.5v-71.223
		C317.215,233.243,313.857,229.885,309.715,229.885z"/>
</g>
<g>
</g>
<g>
</g>
<g>
</g>
<g>
</g>
<g>
</g>
<g>
</g>
<g>
</g>
<g>
</g>
<g>
</g>
<g>
</g>
<g>
</g>
<g>
</g>
<g>
</g>
<g>
</g>
<g>
</g>
</svg>
