<svg xmlns="http://www.w3.org/2000/svg" width="512" height="512"><path d="M0 128h512l.25 153.938.11 48.636c.018 19.574.018 19.574.022 28.732a6700 6700 0 0 0 .04 19.221q.04 11.085.032 22.17c-.003 3.78.001 7.56.023 11.34.023 4.05.015 8.1.004 12.15l.035 3.563c-.06 8.27-1.432 14.583-6.828 21L503 451l-1.559 1.34c-6.853 5.46-14.771 5.967-23.265 5.887h-2.557a1521 1521 0 0 1-8.092-.032q-2.517-.005-5.036-.006c-6.184-.01-12.369-.038-18.553-.064L402 458v-84l34-1c9.408-4.704 15.552-8.027 19-17.875 2.016-8.24.67-15.279-3.355-22.68-3.4-5.054-7.842-9.032-12.435-12.986-5.009-4.32-9.704-8.864-14.335-13.584q-2.031-2.07-4.07-4.133l-1.782-1.817c-2.081-2.093-2.081-2.093-5.104-3.968-1.901-1.592-2.795-2.515-3.472-4.919-.205-2.443-.22-4.824-.172-7.275l-.018-2.796c-.013-3.047.016-6.092.044-9.139q-.006-3.186-.02-6.37c-.02-5.594-.005-11.186.018-16.779.035-8.937.029-17.873.004-26.81-.002-3.114.016-6.227.035-9.34v-5.774c.01-.858.02-1.715.032-2.598-.042-8.873-2.287-15.928-8.401-22.43-5.242-4.597-11.39-6.825-18.32-6.888l-2.58-.03-2.768-.012-2.878-.017q-3.015-.014-6.03-.02c-3.052-.01-6.104-.04-9.157-.072q-2.936-.01-5.873-.016l-2.737-.038c-8.583.03-16.096 2.063-22.837 7.514-6.062 6.274-7.72 14.465-8.789 22.852-4.9-4.101-9.469-8.374-13.937-12.937-4.186-4.234-8.387-8.327-12.95-12.157-1.79-1.615-3.46-3.266-5.133-5-6.161-6.383-11.855-12.03-19.98-15.906l-2.875-1.375c-10.056-2.011-18.52-.716-27.219 4.672-6.023 4.36-11.15 9.8-16.327 15.109-3.082 3.154-6.2 6.184-9.544 9.063-4.226 3.64-8.13 7.55-12.035 11.531-4.52 4.608-9.11 9.01-14 13.223-3.49 3.1-6.732 6.445-10 9.777-4.52 4.608-9.11 9.01-14 13.223-3.49 3.1-6.732 6.445-10 9.777-4.53 4.618-9.13 9.032-14.031 13.254-3.306 2.932-6.378 6.09-9.469 9.246-3.716 3.794-7.443 7.501-11.469 10.969-4.223 3.642-8.128 7.551-12.031 11.531-4.52 4.608-9.11 9.01-14 13.223-3.49 3.1-6.732 6.445-10 9.777-4.58 4.669-9.208 9.158-14.208 13.378C60.822 330.78 57.257 337.025 56 345c-.278 7.646 1.562 14.277 6.797 19.945C76.514 377.653 89.529 373.398 110 374v84l-41.937.125-13.2.055c-5.354.01-5.354.01-7.868.01q-2.61.005-5.221.021c-2.65.015-5.3.017-7.95.016l-2.314.022C21.999 458.213 14.339 456.227 7 450c-6.999-7.578-7.29-15.536-7.24-25.452l-.006-3.83c-.004-3.508.004-7.016.014-10.525.009-3.84.006-7.682.004-11.523q0-11.182.021-22.366c.015-8.624.016-17.248.018-25.873.01-22.768.038-45.537.064-68.306z"/><path d="M262 256c4.558 2.15 7.68 5.562 11.148 9.145 1.88 1.883 3.834 3.621 5.852 5.355 3.23 2.782 6.233 5.71 9.219 8.75 1.865 1.832 3.8 3.544 5.781 5.25 3.23 2.782 6.233 5.71 9.219 8.75 1.865 1.832 3.8 3.544 5.781 5.25 3.23 2.782 6.233 5.71 9.219 8.75 1.865 1.832 3.8 3.544 5.781 5.25 3.23 2.782 6.233 5.71 9.219 8.75 1.865 1.832 3.8 3.544 5.781 5.25 3.23 2.782 6.233 5.71 9.219 8.75 1.865 1.832 3.8 3.544 5.781 5.25 3.23 2.782 6.233 5.71 9.219 8.75 2.495 2.451 5.146 4.704 7.797 6.984 2.567 2.285 4.961 4.713 7.343 7.188 1.606 1.661 1.606 1.661 3.711 2.826C384 368 384 368 384.506 370.526l.009 3.078.038 3.535-.02 3.882q.011 2.043.027 4.085c.022 3.7.02 7.401.01 11.102-.005 3.089.002 6.178.01 9.266.017 7.289.013 14.577-.004 21.865-.016 7.518 0 15.036.032 22.554q.039 9.68.025 19.363c-.005 3.855-.003 7.71.018 11.565q.025 5.439-.012 10.879c-.008 1.963.01 3.927.028 5.89-.093 8.53-.093 8.53-2.814 12.7-3.336 2-5.25 2.338-9.124 2.341l-3.773.038q-2.025-.018-4.05-.04-2.09 0-4.18.007-4.373.003-8.745-.04c-3.73-.033-7.457-.027-11.187-.008-2.876.01-5.751.001-8.627-.014a496 496 0 0 0-4.124.002 371 371 0 0 1-5.772-.043l-3.312-.018c-3.666-.638-5.339-1.915-7.959-4.515-.908-2.724-1.125-4.292-1.125-7.09l-.007-2.518.006-2.754-.006-2.908q-.006-3.13-.006-6.261c-.004-4.444-.025-8.888-.045-13.332-.038-8.274-.07-16.548-.067-24.823q-.002-8.633-.062-17.264-.015-3.282-.005-6.565a726 726 0 0 0-.04-9.218l.031-2.71c-.12-7.401-2.376-13.925-7.416-19.475-6.817-6.342-14.838-8.19-23.937-8.227l-3.308-.02-3.533-.003-3.676-.01q-3.843-.007-7.688-.007c-3.904-.002-7.808-.02-11.712-.04q-3.742-.005-7.486-.005l-3.514-.022c-10.602.03-19.908 1.144-27.908 8.666-5.959 6.653-6.939 12.937-6.88 21.481l-.017 2.934q-.015 3.139-.01 6.278c.005 3.312-.01 6.624-.028 9.936-.043 8.222-.054 16.444-.066 24.665q-.017 10.437-.075 20.872c-.014 3.262-.01 6.524-.005 9.786q-.014 3-.03 5.998l.018 2.746c-.046 4.77-.246 8.051-3.403 11.89-3.49 2.326-4.918 2.266-9.044 2.306l-3.773.049q-2.04.01-4.081.016l-4.19.027q-4.39.024-8.78.028c-3.745.005-7.49.043-11.234.088-2.885.03-5.769.037-8.653.038q-2.07.006-4.14.038c-1.934.027-3.868.019-5.802.01l-3.33.015C133 512 133 512 130.153 510.285c-3.408-5.199-2.907-10.348-2.911-16.438q-.028-2.028-.06-4.057a965 965 0 0 1-.084-11.003 1785 1785 0 0 0-.04-6.886q-.086-12.03-.094-24.061a1793 1793 0 0 0-.177-22.366 1506 1506 0 0 1-.12-19.247 660 660 0 0 0-.089-11.475c-.417-25.083-.417-25.083 4.039-30.994 2.773-2.865 5.913-4.8 9.383-6.758a88 88 0 0 0 4.145-3.863c.605-.57 1.211-1.139 1.836-1.725.604-.57 1.209-1.138 1.832-1.724l4.109-3.86 2.057-1.932q4.785-4.486 9.583-8.959l1.863-1.737 3.716-3.466q4.68-4.365 9.359-8.734l3.75-3.5 1.875-1.75 35.625-33.25 1.878-1.753q1.86-1.736 3.723-3.47 4.913-4.578 9.786-9.199l2.054-1.941q1.95-1.842 3.887-3.696l1.777-1.675 1.552-1.476c5.285-4.28 11.075-3.983 17.593-3.29M39.054-.635q2.923-.009 5.845-.024c5.34-.02 10.68-.01 16.02.005 5.764.012 11.528-.006 17.292-.02 11.286-.022 22.573-.017 33.86-.002q13.758.015 27.518.007l3.957-.002 7.958-.005c24.162-.015 48.324 0 72.487.026q33.072.035 66.144-.002a43727 43727 0 0 1 82.276-.017l3.94.002c9.162.005 18.323-.003 27.485-.014q16.747-.023 33.496.016c5.697.013 11.393.018 17.09.002q7.822-.021 15.647.02 2.827.008 5.656-.01c20.116-.12 20.116-.12 28.398 7.643 7.553 7.847 8.312 14.99 8.17 25.506l-.013 3.602c-.017 3.78-.054 7.56-.093 11.34q-.022 3.855-.04 7.708Q512.094 64.574 512 74a87214 87214 0 0 1-109.955.165l-2.334.002c-12.477.013-24.954.037-37.431.064q-19.2.042-38.4.051-11.85.005-23.699.042-9.083.024-18.164.015-3.729.001-7.458.019c-3.388.014-6.775.011-10.163.003l-2.998.026c-4.937-.032-8.426-.104-12.398-3.387-2.87-3.7-3.361-6.416-3.336-11.043l-.039-3.506q0-3.609.023-7.219c-.114-8.608-1.453-15.593-7.374-22.14-6.492-6.256-14.076-7.54-22.74-7.49l-2.793-.02c-3.07-.02-6.14-.017-9.212-.014l-6.624-.031c-5.983-.028-11.965-.037-17.948-.043-6.257-.01-12.514-.036-18.77-.06q-15.747-.058-31.494-.088-16.215-.03-32.43-.084l-2.02-.006-10.04-.034Q42.603 19.086 1 19c1.25-3.917 2.315-6.92 5-10.063l1.562-1.91C17.305-1.076 27-.713 39.054-.635m348.071 30.697c-2.366 2.823-2.366 2.823-2.75 6.438.791 4.43 1.99 5.892 5.625 8.5 3.833.719 5.437.325 8.812-1.625C401.49 40.468 402 38.935 402 35c-1.604-3.53-2.742-4.828-6-7-4.036-.614-5.521-.344-8.875 2.062m37-.562c-2.773 3.263-3.2 5.236-3.125 9.5 1.766 2.802 3.03 4.515 6 6 4.013.535 5.54.33 8.875-2.063 2.383-2.827 2.383-2.827 2.687-6.5-.32-3.42-.32-3.42-2.125-5.812-4.246-2.831-7.723-3.52-12.312-1.125M460 30c-2.5 3.75-2.536 5.559-2 10 2.45 3.387 3.864 4.787 8 5.562 3.805-.713 5.412-1.678 8-4.562 1.272-4.115 1.507-6.029-.5-9.875-4.08-3.468-9.015-4.447-13.5-1.125"/><path d="M0 36a70969 70969 0 0 1 94.574-.165l2.008-.002q15.096-.019 30.192-.06 17.516-.046 35.03-.055 9.278-.004 18.554-.035 8.727-.03 17.455-.022 3.207-.001 6.414-.019c2.915-.015 5.829-.011 8.744-.003l2.573-.026c4.639.035 7.704.356 11.456 3.387 2.265 3.398 2.26 4.673 2.309 8.664l.076 3.402q.052 3.524.094 7.047c.235 10.077 1.511 17.672 8.552 25.16 5.32 4.665 11.5 6.842 18.522 6.866l2.768.016 3.03.003 3.228.015q5.372.022 10.742.032l7.687.03q8.283.032 16.566.056 11.976.035 23.952.08 19.43.071 38.86.132 18.874.058 37.75.125l2.35.008 11.672.041q48.42.17 96.842.323v19H0zm176.563 21.688c-1.791 2.65-2.487 4.106-2.563 7.312 1.382 3.29 3.022 6.032 5 9l-1.937 1.625c-2.527 2.909-2.985 4.542-3.063 8.375 1.236 2.863 2.332 4.493 4.813 6.375 3.064.875 5.128.453 8.187-.375 2.322-1.447 2.322-1.447 4-3 4 2 4 2 5.813 3.188 3.395 1.26 5.73.738 9.187-.188 2.659-1.99 2.659-1.99 4-5 0-5.324-1.388-8.155-5-12l1.938-2.187c2.102-2.868 2.974-4.29 3.062-7.813-1.386-2.837-2.77-4.77-5-7-5.726-.686-5.726-.686-10.5 2l-1.5 2c-2.468-1.152-4.048-2.048-6-4-5.587-.628-5.587-.628-10.437 1.688M30 67c-2.342 3.513-2.496 4.865-2 9 2.15 3.338 3.204 4.735 7 6 1.423.094 2.85.135 4.275.14l2.643.018 2.89.003 3.05.015q5.005.021 10.01.027l6.946.017q7.285.015 14.571.02c6.227.006 12.453.03 18.68.058 4.784.019 9.567.024 14.35.026q3.444.004 6.888.024c3.21.017 6.42.015 9.63.008l2.878.028c4.882-.03 8.24-.173 12.189-3.384 1.929-2.542 2.009-3.783 1.875-7-1.009-3.459-2.041-4.814-4.875-7-2.786-.888-5.317-1.128-8.23-1.14l-2.536-.018-2.757-.003-2.923-.015q-4.786-.021-9.574-.027l-6.658-.017q-6.983-.015-13.964-.02c-5.958-.006-11.917-.03-17.875-.058a3711 3711 0 0 0-13.756-.026 1430 1430 0 0 1-6.59-.024c-3.075-.017-6.15-.015-9.226-.008l-2.738-.028C38.699 63.652 34.82 64.329 30 67m227.563 106.063 2.128.222c6.778 2.099 11.39 7.582 16.184 12.528 4.56 4.678 9.176 9.155 14.13 13.416 4.2 3.727 8.065 7.803 11.995 11.81 3.24 3.278 6.507 6.452 10 9.461 4.935 4.25 9.443 8.893 14 13.54a204 204 0 0 0 12.031 11.214c3.966 3.517 7.618 7.356 11.324 11.14 3.111 3.15 6.259 6.185 9.614 9.075 4.943 4.262 9.463 8.913 14.031 13.57 3.24 3.278 6.507 6.452 10 9.461 4.935 4.25 9.443 8.893 14 13.54 3.24 3.277 6.507 6.451 10 9.46 4.935 4.25 9.443 8.893 14 13.54a203 203 0 0 0 12.287 11.478c3.921 3.393 5.942 5.759 6.338 10.982.102 2.219.102 2.219-.625 4.5-4.473 4.576-7.823 5.8-14.258 5.875l-2.376.058q-2.484.044-4.968.048c-2.5.019-4.986.122-7.484.23-7.325.152-13.336.088-19.098-4.847-2.41-2.348-4.608-4.824-6.816-7.364a191 191 0 0 0-4.145-3.863l-3.668-3.45-4.109-3.859-2.057-1.932q-4.785-4.486-9.584-8.959l-1.862-1.737-3.716-3.466q-4.68-4.365-9.359-8.734l-3.75-3.5-39.376-36.752a2728 2728 0 0 0-3.738-3.48c-3.214-2.99-6.404-6-9.562-9.05-9.964-9.572-18.637-17.376-32.949-18.53-12.138.403-21.04 6.834-29.156 15.304-1.933 1.97-3.937 3.774-6.031 5.57-3.211 2.76-6.192 5.669-9.157 8.688-2.5 2.456-5.158 4.713-7.812 7-1.9 1.688-3.69 3.438-5.469 5.25-3.038 3.094-6.248 5.921-9.531 8.75-1.9 1.688-3.69 3.438-5.469 5.25-3.038 3.094-6.248 5.921-9.531 8.75-1.9 1.688-3.69 3.438-5.469 5.25-3.038 3.094-6.248 5.921-9.531 8.75-1.9 1.688-3.69 3.438-5.469 5.25-3.038 3.094-6.248 5.921-9.531 8.75-1.9 1.688-3.69 3.438-5.469 5.25-3.033 3.088-6.236 5.912-9.516 8.734-2.567 2.285-4.961 4.713-7.343 7.188L120 354l-1.585 1.57c-3.455 2.046-6.783 1.898-10.688 1.899l-2.429.023q-2.539.015-5.078.009c-2.58-.001-5.156.04-7.736.085q-2.472.008-4.945.008l-2.32.05c-4.035-.052-6.507-.477-9.7-3.045-3.363-3.47-3.363-3.47-3.332-6.911.485-5.914 3.629-8.771 7.813-12.688l1.594-1.504a929 929 0 0 1 7.496-6.995 378 378 0 0 0 14.346-13.974 139 139 0 0 1 8.443-7.906c4.25-3.676 8.188-7.611 12.121-11.621 4.52-4.608 9.11-9.01 14-13.223 3.49-3.1 6.732-6.445 10-9.777 4.53-4.618 9.13-9.032 14.031-13.254 3.306-2.932 6.378-6.09 9.469-9.246 3.716-3.794 7.443-7.501 11.469-10.969 4.223-3.642 8.128-7.551 12.031-11.531 4.52-4.608 9.11-9.01 14-13.223 3.49-3.1 6.732-6.445 10-9.777 4.567-4.657 9.207-9.106 14.152-13.361 3.575-3.17 6.77-6.707 10.04-10.186 4.195-3.665 8.691-6.133 14.37-5.39m-26.722 228.76 3.711-.039q2.015-.012 4.031-.022l2.048-.013q5.368-.03 10.735-.044c3.693-.011 7.384-.046 11.077-.085 2.842-.027 5.684-.035 8.526-.038q2.042-.008 4.082-.035c1.908-.025 3.815-.021 5.723-.017l3.285-.018c3.648.605 5.307 1.948 7.942 4.488 1.23 2.462 1.12 4.065 1.114 6.817v3.075l-.016 3.24-.003 2.973c-.006 3.673-.02 7.347-.033 11.02L293 458h-74l-.25-24.688-.11-7.772a3789 3789 0 0 1-.03-6.114l-.063-3.194c-.003-7.475-.003-7.475 2.352-11.384 3.412-3.002 5.462-2.984 9.94-3.025m122.317-210.452 2.97-.007q3.1 0 6.203.04c3.16.033 6.319.02 9.48 0q3.017.01 6.035.03l2.857-.015c4.239.075 6.677.207 10.371 2.429 3.412 3.808 3.066 7.633 3.042 12.47v2.247c0 2.45-.009 4.902-.016 7.353l-.005 5.099q-.006 6.71-.024 13.42-.014 6.847-.02 13.694-.016 13.435-.049 26.869c-3.714-2.16-6.571-4.344-9.582-7.422l-2.576-2.61-2.654-2.718c-5.285-5.391-10.56-10.672-16.296-15.583-3.949-3.48-7.567-7.304-11.247-11.062l-1.864-1.886-1.847-1.9c-1.902-1.874-1.902-1.874-4.155-3.385-3.436-2.475-5.46-4.131-6.49-8.34-.257-3.441-.234-6.77-.101-10.219l-.018-3.535c.148-8.33.148-8.33 2.743-12.171 4.398-3.09 7.987-2.872 13.243-2.798"/></svg>