<svg xmlns="http://www.w3.org/2000/svg" width="512" height="512" style="shape-rendering:geometricPrecision;text-rendering:geometricPrecision;image-rendering:optimizeQuality;fill-rule:evenodd;clip-rule:evenodd"><path style="opacity:.999" fill="#285680" d="M26.5-.5h458q21 6 27 27v61q-130.501.25-261-.5-10.554-3.553-12.5-14.5l-1-26q-3.988-8.988-13.5-11.5-112-.75-224-.5v-8q6-21 27-27"/><path style="opacity:1" fill="#3b97d2" d="M-.5 34.5q112-.25 224 .5 9.512 2.512 13.5 11.5l1 26q1.946 10.947 12.5 14.5 130.499.75 261 .5v35H-.5z"/><path style="opacity:1" fill="#4db66f" d="M385.5 34.5q12.773.516 10.5 13-4.177 6.212-11.5 4.5-6.982-4.345-4.5-12.5a38 38 0 0 1 5.5-5"/><path style="opacity:1" fill="#e7bf21" d="M420.5 34.5q15.465.954 9.5 15-9.271 7.106-15-3-1.69-8.115 5.5-12"/><path style="opacity:1" fill="#df4c3e" d="M456.5 34.5q13.396 1.316 9.5 14-11.955 9.66-16.5-5 1.032-6.626 7-9"/><path style="opacity:1" fill="#285781" d="M181.5 61.5q7.505-.622 12.5 5 7.425-9.417 16-1 3.424 7.953-3.5 13.5 9.264 7.546 1 16-8.372 3.874-14-3.5-6.752 8.643-15.5 2-3.82-8.229 2.5-14.5-8.447-9.522 1-17.5"/><path style="opacity:1" fill="#ebeff0" d="M39.5 70.5q52.503-.25 105 .5 7.99 5.154 3 13.5l-3 2.5q-52.5 1-105 0-9.901-8.244 0-16.5m-40 52h512v309q-5.729 20.977-27 26.5a1636 1636 0 0 1-96 1.5 2427 2427 0 0 1-1-98q19.506.25 39-.5 17.385-5.508 13.5-23.5l-3-5a2253 2253 0 0 1-40.5-39q.25-48.502-.5-97-4.254-9.505-14.5-11.5-21-1-42 0-10.535 3.778-13 14.5l-2 25a4201 4201 0 0 1-56-53.5q-13.064-6.843-26 0A19436 19436 0 0 0 73 333.5q-7.774 16.592 7.5 26.5a325 325 0 0 0 43 1.5q.488 49.11-1 98-48.043.659-96-1.5-21.271-5.523-27-26.5z"/><path style="opacity:1" fill="#f19c1f" d="M324.5 224.5q.5 1.5 2 2 34.92 33.417 70 67a2253 2253 0 0 0 40.5 39l3 5q3.885 17.992-13.5 23.5-19.494.75-39 .5a17015 17015 0 0 1-114-107.5q-18-15-36 0a17015 17015 0 0 1-114 107.5 325 325 0 0 1-43-1.5q-15.274-9.908-7.5-26.5A19436 19436 0 0 1 242.5 171q12.936-6.843 26 0a4201 4201 0 0 0 56 53.5"/><path style="opacity:1" fill="#e57e26" d="M396.5 293.5q-35.08-33.583-70-67v-27q2.465-10.722 13-14.5 21-1 42 0 10.246 1.995 14.5 11.5.75 48.498.5 97"/><path style="opacity:1" fill="#e9c5a1" d="M326.5 199.5v27q-1.5-.5-2-2z"/><path style="opacity:.999" fill="#f0c419" d="M387.5 361.5q-.489 49.11 1 98 .25 19.007-.5 38-2.752 9.499-11.5 14h-65q-8.472-3.225-11.5-12a800 800 0 0 1-.5-40q.25-29.504-.5-59-3.553-10.554-14.5-12.5a870 870 0 0 0-59 0q-10.106 2.604-13.5 12.5-.75 29.496-.5 59 .25 20.006-.5 40-3.028 8.775-11.5 12h-65q-8.748-4.501-11.5-14a722 722 0 0 1-.5-38q1.488-48.89 1-98a17015 17015 0 0 0 114-107.5q18-15 36 0a17015 17015 0 0 0 114 107.5"/><path style="opacity:1" fill="#ecefef" d="M299.5 459.5h-88q-.25-29.504.5-59 3.394-9.896 13.5-12.5a870 870 0 0 1 59 0q10.947 1.946 14.5 12.5.75 29.496.5 59"/></svg>