<?xml version="1.0" encoding="iso-8859-1"?>
<!-- Generator: Adobe Illustrator 19.0.0, SVG Export Plug-In . SVG Version: 6.00 Build 0)  -->
<svg xmlns="http://www.w3.org/2000/svg" xmlns:xlink="http://www.w3.org/1999/xlink" version="1.1" id="Capa_1" x="0px" y="0px" viewBox="0 0 511 511" style="enable-background:new 0 0 511 511;" xml:space="preserve" width="512" height="512">
<g>
	<g>
		<path style="fill:#F5F4F7;" d="M7.5,295.5c0,0,88-136,248-136s248,136,248,136s-88,136-248,136S7.5,295.5,7.5,295.5z"/>
		<path style="fill:#EBE8EF;" d="M255.5,399.5c-125.797,0-207.073-84.057-236.079-120c-7.886,9.772-11.921,16-11.921,16    s88,136,248,136s248-136,248-136s-4.035-6.228-11.921-16C462.573,315.443,381.297,399.5,255.5,399.5z"/>
		<circle style="fill:#7ED9DE;" cx="255.5" cy="295.5" r="104"/>
		<path style="fill:#5ECFD6;" d="M279.5,375.5c-57.438,0-104-46.563-104-104c0-22.593,7.208-43.5,19.444-60.556    C168.639,229.816,151.5,260.655,151.5,295.5c0,57.438,46.562,104,104,104c34.845,0,65.684-17.139,84.556-43.444    C323,368.293,302.093,375.5,279.5,375.5z"/>
		<circle style="fill:#76618D;" cx="255.5" cy="295.5" r="24"/>
	</g>
	<g>
		<path d="M509.797,291.426c-0.925-1.43-23.138-35.398-65.578-69.755c-24.945-20.194-51.726-36.293-79.596-47.849    C329.7,159.342,292.986,152,255.5,152s-74.2,7.342-109.123,21.822c-27.871,11.556-54.651,27.654-79.597,47.849    c-42.44,34.356-64.653,68.325-65.578,69.755c-1.604,2.479-1.604,5.669,0,8.148c0.925,1.43,23.137,35.398,65.578,69.755    c24.946,20.194,51.726,36.293,79.597,47.849C181.3,431.658,218.014,439,255.5,439c25.101,0,50.024-3.31,74.079-9.838    c3.998-1.085,6.359-5.205,5.274-9.202c-1.085-3.999-5.209-6.359-9.202-5.274C302.876,420.866,279.274,424,255.5,424    c-80.249,0-141.571-35.896-178.883-66.008c-32.382-26.134-52.85-52.585-59.984-62.492c7.138-9.911,27.605-36.36,59.984-62.492    C113.929,202.896,175.251,167,255.5,167c80.248,0,141.571,35.896,178.883,66.008c32.382,26.134,52.85,52.584,59.984,62.491    c-11.611,16.109-58.544,75.961-135.612,107.873c-3.827,1.585-5.645,5.972-4.061,9.799c1.585,3.826,5.97,5.646,9.799,4.061    c48.835-20.222,85.683-51.057,107.995-73.363c24.212-24.206,36.785-43.485,37.309-44.294    C511.401,297.095,511.401,293.905,509.797,291.426z"/>
		<path d="M255.5,184C194.018,184,144,234.019,144,295.5S194.018,407,255.5,407S367,356.982,367,295.5S316.981,184,255.5,184z     M255.5,392c-53.21,0-96.5-43.29-96.5-96.5s43.29-96.5,96.5-96.5c53.21,0,96.5,43.29,96.5,96.5S308.71,392,255.5,392z"/>
		<path d="M255.5,264c-17.369,0-31.5,14.131-31.5,31.5s14.131,31.5,31.5,31.5s31.5-14.131,31.5-31.5S272.869,264,255.5,264z     M255.5,312c-9.098,0-16.5-7.402-16.5-16.5s7.402-16.5,16.5-16.5c9.098,0,16.5,7.402,16.5,16.5S264.598,312,255.5,312z"/>
		<path d="M255.5,111c4.143,0,7.5-3.357,7.5-7.5v-24c0-4.143-3.357-7.5-7.5-7.5c-4.142,0-7.5,3.357-7.5,7.5v24    C248,107.643,251.358,111,255.5,111z"/>
		<path d="M153.005,132.973c2.204,3.818,7.388,4.904,10.946,2.287c3.037-2.234,3.928-6.525,2.045-9.787l-12-20.784    c-2.071-3.588-6.658-4.815-10.245-2.745c-3.587,2.071-4.816,6.658-2.745,10.245L153.005,132.973z"/>
		<path d="M347.75,135.718c3.543,2.045,8.204,0.793,10.245-2.745l12-20.784c2.071-3.587,0.842-8.174-2.745-10.245    c-3.587-2.07-8.175-0.843-10.245,2.745l-12,20.784C342.933,129.06,344.163,133.647,347.75,135.718z"/>
	</g>
</g>















</svg>
