<svg xmlns="http://www.w3.org/2000/svg" width="512" height="512" style="shape-rendering:geometricPrecision;text-rendering:geometricPrecision;image-rendering:optimizeQuality;fill-rule:evenodd;clip-rule:evenodd"><path style="opacity:.964" fill="#fece94" d="M195.5-.5h11q20.961 4.249 38 17.5 6.405 5.643 11 12.5a98.3 98.3 0 0 1-1 19.5q1.095 3.23 2 6.5l-13 2a124 124 0 0 0-7.5-12q-1.224-1.985-3.5-2-14.65-16.573-37-18z"/><path style="opacity:.973" fill="#ffcc83" d="M181.5-.5h14v26q-10.954-.092-21 4a14 14 0 0 1 1-3.5 166 166 0 0 1-3-22.5q-1.937.356-3-1a94 94 0 0 0 12-3"/><path style="opacity:.987" fill="#feca73" d="M169.5 2.5q1.063 1.356 3 1a166 166 0 0 0 3 22.5 14 14 0 0 0-1 3.5q-12.083 4.091-20 14a259 259 0 0 1-31 1q-1 0-1-1h29a524 524 0 0 0-3.5-27q-1.006-1.129-2.5-1 10.605-8.807 24-13"/><path style="opacity:1" fill="#ffc462" d="M145.5 15.5q1.494-.129 2.5 1a524 524 0 0 1 3.5 27h-29q7.233-17.442 23-28"/><path style="opacity:.97" fill="#fecf93" d="M210.5 39.5q.426 4.915-1 9.5a38 38 0 0 1 3 7.5h-51a89.4 89.4 0 0 1 9-13q18.939-13.46 40-4"/><path style="opacity:.991" fill="#bcc9c9" d="M265.5 44.5v-1h95q48 49 97 97v28l-2-3a533 533 0 0 0-18.5-21A5473 5473 0 0 1 349.5 56q-8.147-7.575-19-10.5-.91.186-1 1a21.2 21.2 0 0 0-7-2z"/><path style="opacity:.988" fill="#c8d4d3" d="M360.5 43.5h26q35 36 71 71v26q-49-48-97-97"/><path style="opacity:.981" fill="#d8e1e1" d="M386.5 43.5q23.505-.25 47 .5 18.306 2.772 23.5 20.5.75 24.995.5 50-36-35-71-71"/><path style="opacity:1" fill="#fefefe" d="M122.5 43.5q0 1 1 1a771 771 0 0 0 34 32v113h-103v-125q2.995-15.248 18-19.5a451 451 0 0 1 50-1.5"/><path style="opacity:1" fill="#ced4d3" d="M154.5 43.5h16a89.4 89.4 0 0 0-9 13q-4.077 9.503-4 20a771 771 0 0 1-34-32 259 259 0 0 0 31-1"/><path style="opacity:1" fill="#fefefe" d="M265.5 44.5h57l14 15a690 690 0 0 1 1 52 18.5 18.5 0 0 1-.5 6q-1.062-1.321-2.5-2a2095 2095 0 0 0-66-67.5 2.43 2.43 0 0 0-2-.5 5.73 5.73 0 0 0-1-3"/><path style="opacity:1" fill="#919c9c" d="M322.5 44.5a21.2 21.2 0 0 1 7 2q8.018 4.554 7 13z"/><path style="opacity:1" fill="#eaf0ef" d="M329.5 46.5q.09-.814 1-1 10.853 2.925 19 10.5a5473 5473 0 0 0 87.5 88.5 533 533 0 0 1 18.5 21h-22a12702 12702 0 0 0-94.5-95 393 393 0 0 0-.5 28q.477 6.799-1 13a690 690 0 0 0-1-52q1.018-8.446-7-13"/><path style="opacity:1" fill="#fec86a" d="M255.5 29.5q6.454 5.886 10 14v1q.915 1.337 1 3 .915 1.337 1 3a2807 2807 0 0 0-7 37q.485-9.783-1-19-.36-6.93-3-13-.905-3.27-2-6.5a98.3 98.3 0 0 0 1-19.5"/><path style="opacity:1" fill="#fdd191" d="M210.5 39.5q2.29-.11 3 2a328 328 0 0 0 3 35h-12q-.216-20.298-18-12-.822-3.876-5-3-2.398-.401-4 1-2.29-.11-3 2-1.935.837-2.5 3a30.5 30.5 0 0 0-1.5 9h-12v131h-1v-131q-.077-10.497 4-20h51a38 38 0 0 0-3-7.5q1.426-4.585 1-9.5"/><path style="opacity:1" fill="#fec554" d="M267.5 50.5q4.57 8.8 5 19a1162 1162 0 0 1-5.5 41l-1-8q-2.339 13.53-5 27a544 544 0 0 0-.5 33q-1.442 2.647-1 6h-11q.465 4.82-1 9v-43q1.452-3.161 1-7h11a354 354 0 0 0 1-30v-10a2807 2807 0 0 1 7-37"/><path style="opacity:1" fill="#fecd88" d="M256.5 55.5q2.64 6.07 3 13v8h-12a74.2 74.2 0 0 0-4-19z"/><path style="opacity:1" fill="#ffcc7d" d="M174.5 64.5a2231 2231 0 0 0-4 33h-12v-21h12a30.5 30.5 0 0 1 1.5-9q.565-2.163 2.5-3"/><path style="opacity:1" fill="#f0f4f4" d="M433.5 165.5h-28q-33-34-67-67-.25-14.01.5-28a12702 12702 0 0 1 94.5 95"/><path style="opacity:1" fill="#ffcc7b" d="M204.5 76.5h12v21h-12z"/><path style="opacity:1" fill="#ffbe46" d="M220.5 48.5q3.064 1.62 4 5a442 442 0 0 0-1 42q-3.644 13.876-6 40v-21q-.846-33.342 3-66"/><path style="opacity:1" fill="#fecc79" d="M259.5 68.5q1.485 9.217 1 19v10q-1.465 4.18-1 9h-11q.426 2.872-1 5v-35h12z"/><path style="opacity:1" fill="#ffc85b" d="M181.5 61.5a628 628 0 0 1-11 96h-12v-41h12q3.505-27.054 7-54 1.602-1.401 4-1"/><path style="opacity:1" fill="#f4f6f6" d="M266.5 47.5a2.43 2.43 0 0 1 2 .5 2095 2095 0 0 1 66 67.5 3566 3566 0 0 1-50 50.5l8 1-6 6 10 1-6 6 9 1-7 7 24 2-4 4q34.256 1.245 68-.5l15 14 5 6q-5.193 1.473-11 1 .452-3.839-1-7h-115q.492-69.108-1-138-.43-10.2-5-19a5.73 5.73 0 0 0-1-3"/><path style="opacity:1" fill="#e6e8e6" d="M216.5 43.5h16q2.276.015 3.5 2a124 124 0 0 1 7.5 12 74.2 74.2 0 0 1 4 19v47a14.7 14.7 0 0 0-3.5 3q2.565-10.814-4-3l-1-5-5 5q.053-5.618-3-2a874 874 0 0 1-1.5 42v-94q-.107-8.817-5-16-.936-3.38-4-5z"/><path style="opacity:1" fill="#ffcb6f" d="M177.5 62.5q-3.495 26.946-7 54h-12v-19h12a2231 2231 0 0 1 4-33q.71-2.11 3-2"/><path style="opacity:1" fill="#ffca6a" d="M213.5 41.5q2.29-.11 3 2l4 5q-3.846 32.658-3 66-1.477 6.201-1 13h-12v-30h12v-21a328 328 0 0 1-3-35"/><path style="opacity:1" fill="#fecb69" d="M260.5 97.5a354 354 0 0 1-1 30h-11q.452 3.839-1 7v-23q1.426-2.128 1-5h11q-.465-4.82 1-9"/><path style="opacity:1" fill="#fea41d" d="M229.5 69.5v94q.147 3.08-2 5a1507 1507 0 0 1-.5-95l1 4q.274-4.297 1.5-8"/><path style="opacity:1" fill="#e3e5e0" d="M204.5 76.5v87a445 445 0 0 1-1.5-30l-18 18q-.75 26.495-.5 53a813 813 0 0 1-1-57v-55q-.25-12.01.5-24a16.6 16.6 0 0 1 2.5-4q17.784-8.298 18 12"/><path style="opacity:1" fill="#feb02c" d="M224.5 53.5q4.893 7.183 5 16-1.226 3.703-1.5 8l-1-4q-1.246 47.754.5 95-.685 3.41-4 4v-77a442 442 0 0 1 1-42"/><path style="opacity:1" fill="#fafbfb" d="M338.5 98.5q34 33 67 67-23.505.25-47-.5-4.507-2.031-9-3a1376 1376 0 0 1 31 31.5 773 773 0 0 1-68 .5l4-4-24-2 7-7-9-1 6-6-10-1 6-6-8-1a3566 3566 0 0 0 50-50.5q1.438.679 2.5 2 .743-2.96.5-6 1.477-6.201 1-13"/><path style="opacity:1" fill="#ffba2f" d="M223.5 95.5v77q-1.18 2.406-4 2-2.682.428-5-1a392 392 0 0 0 3-38q2.356-26.124 6-40"/><path style="opacity:1" fill="#ecefef" d="M247.5 123.5v54q.49 15.272-1 30h-62v-3q-.25-26.505.5-53l18-18q.255 15.263 1.5 30 .834 8.587 9 11.5 3.318 1.183 6-.5 2.82.406 4-2 3.315-.59 4-4 2.147-1.92 2-5a874 874 0 0 0 1.5-42q3.053-3.618 3 2l5-5 1 5q6.565-7.814 4 3a14.7 14.7 0 0 1 3.5-3"/><path style="opacity:1" fill="#fec240" d="M272.5 69.5a4795 4795 0 0 1 1 138q.258 1.487-1 2 .25-39.003-.5-78a370 370 0 0 0-2 31 218 218 0 0 1-6.5 25 56.7 56.7 0 0 0 .5-15q-.747 5.987-3.5 11v-21q-.25-16.507.5-33 2.661-13.47 5-27l1 8a1162 1162 0 0 0 5.5-41"/><path style="opacity:1" fill="#fec954" d="M217.5 114.5v21a392 392 0 0 1-3 38q2.318 1.428 5 1-2.682 1.683-6 .5-8.166-2.913-9-11.5v-36h12q-.477-6.799 1-13"/><path style="opacity:1" fill="#ffc649" d="M181.5 61.5q4.178-.876 5 3a16.6 16.6 0 0 0-2.5 4q-.75 11.99-.5 24a879 879 0 0 1-12.5 85q-6.1 1.446-12.5 1v-21h12a628 628 0 0 0 11-96"/><path style="opacity:1" fill="#d6dcdc" d="M405.5 165.5q6.221 1.237 13 1.5l-6 6 2 1-6 6 1 1-7 7q2.316.434 4 2l-4 4 2 1-5 5 3 1a64 64 0 0 1-7 6.5l-15-14a1376 1376 0 0 0-31-31.5q4.493.969 9 3 23.495.75 47 .5"/><path style="opacity:1" fill="#e1e7e6" d="M405.5 165.5h50l2 3v317h-1v-208h-68a17691 17691 0 0 0-266 1 1174 1174 0 0 0-68-1v205q74.525.458 149-1v-6h3q.359-6.513 1-13 3.834.551 6-2.5a101.3 101.3 0 0 0 2-16.5h5a41.5 41.5 0 0 1 1-8q-49.756.498-99-1h160q-13.227 1.49-27 1v47a497 497 0 0 1-54 6.5q-73.498.75-147 .5.401-2.398-1-4v-256q1.49 12.225 1 25v14q72.002.25 144-.5a152 152 0 0 0-9.5-9.5 19.2 19.2 0 0 1-2.5-5q36.3 18.437 68-7a128 128 0 0 1 1 22q100.005.5 200-1a229 229 0 0 0-21-20q-16.5-17.5-34-34l-5-6a64 64 0 0 0 7-6.5l-3-1 5-5-2-1 4-4q-1.684-1.566-4-2l7-7-1-1 6-6-2-1 6-6q-6.779-.263-13-1.5"/><path style="opacity:1" fill="#ffc53e" d="M183.5 92.5v55a218 218 0 0 0-3.5 21l-1-10a404 404 0 0 1-8 39q-6.1 1.446-12.5 1v-20q6.4.446 12.5-1a879 879 0 0 0 12.5-85"/><path style="opacity:1" fill="#fec63c" d="M260.5 162.5v21a256 256 0 0 1-1 27h-13v-3q1.49-14.728 1-30 1.465-4.18 1-9h11q-.442-3.353 1-6"/><path style="opacity:1" fill="#f6f8f8" d="M54.5 189.5h103v18h-35q-1.453 3.161-1 7h-67z"/><path style="opacity:1" fill="#febd22" d="M272.5 209.5a105 105 0 0 1-4 17 65 65 0 0 1-6 9q-.993-2.706-1-6a664 664 0 0 0 2-42 218 218 0 0 0 6.5-25q.35-15.549 2-31 .75 38.997.5 78"/><path style="opacity:1" fill="#c2cdcc" d="M122.5 207.5h36a82 82 0 0 0 4 19h-40z"/><path style="opacity:1" fill="#c0cbcb" d="M184.5 207.5h62v3q-2.176 9.358-9 16h-43q-2.5-1.5-4-4-5.064-6.633-6-15"/><path style="opacity:1" fill="#c1cdcd" d="M273.5 207.5h115v19h-120a105 105 0 0 0 4-17q1.258-.513 1-2"/><path style="opacity:1" fill="#fec22b" d="M183.5 147.5a813 813 0 0 0 1 57v3q.936 8.367 6 15-1.469 4.687-1 10l-3-1.5q-10.488-.75-21-.5l-3-4a82 82 0 0 1-4-19v-9q6.4.446 12.5-1a404 404 0 0 0 8-39l1 10a218 218 0 0 1 3.5-21"/><path style="opacity:1" fill="#fec421" d="M263.5 187.5a664 664 0 0 1-2 42q.007 3.294 1 6a1674 1674 0 0 1-6 9q-1.5.5-2 2-31.7 25.437-68 7l-2-1q-12.723-8.223-19-22 10.512-.25 21 .5l3 1.5q4.611 2.703 10 3h9q16.703 1.863 29-9 6.824-6.642 9-16h13a256 256 0 0 0 1-27q2.753-5.013 3.5-11a56.7 56.7 0 0 1-.5 15"/><path style="opacity:1" fill="#fe9d10" d="M190.5 222.5q1.5 2.5 4 4 1.541 2.54 4 4-2.514 1.025-2 4 1.937-.356 3 1-5.389-.297-10-3-.469-5.313 1-10"/><path style="opacity:1" fill="#e9ebe8" d="M194.5 226.5h43q-12.297 10.863-29 9a1013 1013 0 0 0-10-5q-2.459-1.46-4-4"/><path style="opacity:1" fill="#ecefef" d="M388.5 207.5q1.452 3.161 1 7 5.807.473 11-1 17.5 16.5 34 34-88.501.25-177-.5 4.248-2.862-1-2.5 3.039-4.527 6-9a65 65 0 0 0 6-9h120z"/><path style="opacity:1" fill="#fe820c" d="M198.5 230.5q5.111 2.521 10 5h-9q-1.063-1.356-3-1-.514-2.975 2-4"/><path style="opacity:1" fill="#ecefef" d="M54.5 64.5v150h67q-.453-3.839 1-7v19h40l3 4q6.277 13.777 19 22-1.857.465 0 1.5-64.998.75-130 .5.49-12.775-1-25a6807 6807 0 0 1 1-165"/><path style="opacity:1" fill="#e5e9e9" d="m184.5 252.5 2 1a19.2 19.2 0 0 0 2.5 5 152 152 0 0 1 9.5 9.5q-71.998.75-144 .5v-14q65.002.25 130-.5-1.857-1.035 0-1.5"/><path style="opacity:1" fill="#e6eaea" d="M256.5 244.5q5.248-.362 1 2.5 88.499.75 177 .5a229 229 0 0 1 21 20q-99.995 1.5-200 1 .446-11.13-1-22 .5-1.5 2-2"/><path style="opacity:1" fill="#c1cdcd" d="M388.5 277.5v18h-266v-17a17691 17691 0 0 1 266-1"/><path style="opacity:1" fill="#f5f8f7" d="M122.5 278.5v17q52.244 1.497 105 1v6h-5l-2 14h-5a171 171 0 0 1-1 15h-6a195 195 0 0 1-2 13q-75.993 1.5-152 1v-68q34.113-.483 68 1m266-1h68v68h-201v-49q66.754.498 133-1z"/><path style="opacity:1" fill="#f0f4f4" d="M227.5 296.5h23v6h-4a199 199 0 0 0-1 14q-1.983-.255-3.5 1a886 886 0 0 0-1.5 14h-3l-1.5 12q-1.647 2.201-4.5 2.5-54.754.25-109 1.5v18h103a29.2 29.2 0 0 0-1 9h-5l-1.5 12q-2.006 2.256-5 3a886 886 0 0 0-1.5 14h-6a77 77 0 0 0-1 13h-82q-1.482 7.71-1 16h-67v-87q76.007.5 152-1a195 195 0 0 0 2-13h6q.83-7.473 1-15h5l2-14h5z"/><path style="opacity:1" fill="#e9eeee" d="M122.5 295.5h266a4422 4422 0 0 1-133 1v49l133 2h-266a5907 5907 0 0 1 109-1.5q2.853-.299 4.5-2.5l1.5-12h3q.693-6.993 1.5-14 1.517-1.255 3.5-1 .253-7.022 1-14h4v-6h-23q-52.756.497-105-1"/><path style="opacity:1" fill="#f0f4f4" d="M255.5 345.5h201v87h-173v-16h-28v-51h133v-18z"/><path style="opacity:1" fill="#c2cece" d="M122.5 347.5h266v18h-266z"/><path style="opacity:1" fill="#e9eeee" d="M225.5 365.5h30v51h-51a77 77 0 0 1 1-13h6q.693-6.993 1.5-14 2.994-.744 5-3l1.5-12h5a29.2 29.2 0 0 1 1-9"/><path style="opacity:1" fill="#c2cece" d="M122.5 416.5h161v16q.258 1.488-1 2h-160z"/><path style="opacity:1" fill="#ebf1f0" d="M122.5 416.5v18q49.244 1.498 99 1a41.5 41.5 0 0 0-1 8h-5a101.3 101.3 0 0 1-2 16.5q-2.166 3.051-6 2.5a300 300 0 0 0-1 13h-3v6q-74.475 1.458-149 1v-50h67q-.482-8.29 1-16m161 16h173v53a10106 10106 0 0 1-201 1v-51q13.773.49 27-1 1.258-.512 1-2"/><path style="opacity:1" fill="#d5dddd" d="M255.5 482.5v4a10106 10106 0 0 0 201-1h1q.442 3.352-1 6a5077 5077 0 0 1-201 2v-4a605 605 0 0 1-49 3.5l-75.5.5a1473 1473 0 0 1-76.5-2q-1.442-2.648-1-6 1.401 1.602 1 4 73.502.25 147-.5a497 497 0 0 0 54-6.5"/><path style="opacity:1" fill="#bec8c8" d="M454.5 496.5q-.375 3.261-3 5-97.495-2-196-2-98.605.003-197 1-1.76-1.52-2-4 92.002.25 184-.5 7.377-.293 14.5-1.5a4990 4990 0 0 0 199.5 2"/><path style="opacity:1" fill="#c8d2d1" d="M456.5 491.5q.147 3.08-2 5a4990 4990 0 0 1-199.5-2 114 114 0 0 1-14.5 1.5q-91.998.75-184 .5-2.147-1.92-2-5a1473 1473 0 0 0 76.5 2l75.5-.5a605 605 0 0 0 49-3.5v4q100.821.987 201-2"/><path style="opacity:1" fill="#adb8b7" d="M451.5 501.5a6.55 6.55 0 0 1-3 3 18630 18630 0 0 0-386 0q-2.5-1.5-4-4 98.395-.997 197-1 98.505 0 196 2"/><path style="opacity:1" fill="#a0acab" d="M448.5 504.5a6.55 6.55 0 0 1-3 3q-46.99-2-95-2-107.003 1.5-214 0l-71 .5q.835.574 1 1.5-2.856-.357-4-3a18630 18630 0 0 1 386 0"/><path style="opacity:1" fill="#96a2a1" d="M445.5 507.5a5.73 5.73 0 0 1-3 1q-187.033.006-374 0-1.487.258-2-1-.165-.926-1-1.5l71-.5q106.997 1.5 214 0 48.01 0 95 2"/><path style="opacity:1" fill="#869493" d="M442.5 508.5a27.2 27.2 0 0 1-5 3h-364a27.2 27.2 0 0 1-5-3q186.967.006 374 0"/></svg>