<svg height="511.999pt" viewBox="0 0 511.999 511.999" width="511.999pt" xmlns="http://www.w3.org/2000/svg"><path d="m291.15625 18.273438c11.953125 17.027343 34.394531 23.039062 53.261719 14.269531 26.996093-12.546875 58.257812 5.503906 60.890625 35.15625 1.839844 20.726562 18.265625 37.152343 38.992187 38.992187 29.652344 2.628906 47.703125 33.894532 35.152344 60.890625-8.765625 18.867188-2.753906 41.304688 14.273437 53.261719 24.363282 17.105469 24.363282 53.207031 0 70.3125-17.027343 11.953125-23.039062 34.394531-14.273437 53.261719 12.550781 26.996093-5.503906 58.257812-35.152344 60.890625-20.726562 1.839844-37.152343 18.265625-38.992187 38.992187-2.632813 29.652344-33.894532 47.703125-60.890625 35.152344-18.867188-8.765625-41.308594-2.753906-53.261719 14.273437-17.105469 24.363282-53.207031 24.363282-70.3125 0-11.957031-17.027343-34.394531-23.039062-53.261719-14.273437-26.996093 12.550781-58.261719-5.503906-60.890625-35.152344-1.839844-20.726562-18.265625-37.152343-38.992187-38.992187-29.652344-2.632813-47.703125-33.894532-35.15625-60.890625 8.769531-18.867188 2.757812-41.308594-14.269531-53.261719-24.363282-17.105469-24.363282-53.207031 0-70.3125 17.027343-11.957031 23.039062-34.394531 14.269531-53.261719-12.546875-26.996093 5.503906-58.261719 35.15625-60.890625 20.726562-1.839844 37.152343-18.265625 38.992187-38.992187 2.628906-29.652344 33.894532-47.703125 60.890625-35.15625 18.867188 8.769531 41.304688 2.757812 53.261719-14.269531 17.105469-24.363282 53.207031-24.363282 70.3125 0zm0 0" fill="#ff8533"/><path d="m236.441406 18.273438c11.957032 17.027343 34.394532 23.039062 53.261719 14.269531 4.003906-1.859375 8.101563-3.03125 12.1875-3.609375-4.085937-2.824219-7.738281-6.398438-10.734375-10.660156-14.816406-21.105469-43.882812-23.914063-62.511719-8.453126 2.875 2.386719 5.507813 5.195313 7.796875 8.453126zm0 0" fill="#ff8533"/><path d="m452.523438 256c0 108.539062-87.984376 196.523438-196.523438 196.523438s-196.523438-87.984376-196.523438-196.523438 87.984376-196.523438 196.523438-196.523438 196.523438 87.984376 196.523438 196.523438zm0 0" fill="#f8fbff"/><path d="m256 59.476562c-9.285156 0-18.414062.660157-27.355469 1.90625 95.582031 13.3125 169.164063 95.363282 169.164063 194.617188s-73.578125 181.304688-169.164063 194.617188c8.941407 1.246093 18.070313 1.90625 27.355469 1.90625 108.535156 0 196.523438-87.988282 196.523438-196.523438s-87.988282-196.523438-196.523438-196.523438zm0 0" fill="#e4eaf7"/><path d="m265.132812 129.621094 28.835938 76.683594 81.839844 3.726562c9 .410156 12.683594 11.75 5.644531 17.371094l-64.023437 51.121094 21.75 78.988281c2.390624 8.683593-7.257813 15.691406-14.777344 10.734375l-68.402344-45.089844-68.402344 45.089844c-7.519531 4.957031-17.167968-2.050782-14.777344-10.734375l21.746094-78.988281-64.019531-51.121094c-7.039063-5.621094-3.355469-16.960938 5.640625-17.371094l81.84375-3.726562 28.835938-76.683594c3.171874-8.429688 15.09375-8.429688 18.265624 0zm0 0" fill="#fcdf6c"/><path d="m375.808594 210.03125-42.113282-1.914062-70.949218 56.648437 21.140625 76.773437 40.515625 26.707032c7.519531 4.957031 17.164062-2.050782 14.777344-10.734375l-21.75-78.988281 64.023437-51.121094c7.039063-5.621094 3.355469-16.960938-5.644531-17.371094zm0 0" fill="#f4b425"/></svg>