<?xml version="1.0" encoding="UTF-8"?>
<svg xmlns="http://www.w3.org/2000/svg" width="800" height="360" viewBox="0 0 800 360" role="img" aria-label="Star history of nicejade/markdown-online-editor">
  <defs>
    <linearGradient id="area-light" x1="0" y1="0" x2="0" y2="1">
      <stop offset="0%" stop-color="#f59e0b" stop-opacity="0.22"/>
      <stop offset="100%" stop-color="#f59e0b" stop-opacity="0"/>
    </linearGradient>
  </defs>
  <line x1="52" y1="324" x2="764" y2="324" stroke="rgba(0,0,0,0.08)" stroke-width="1" /><text x="42" y="327.5" text-anchor="end" font-size="11" fill="#636366" font-family="ui-sans-serif, system-ui, -apple-system, BlinkMacSystemFont, 'Segoe UI', sans-serif">0</text><line x1="52" y1="249" x2="764" y2="249" stroke="rgba(0,0,0,0.08)" stroke-width="1" stroke-dasharray="3 3" /><text x="42" y="252.5" text-anchor="end" font-size="11" fill="#636366" font-family="ui-sans-serif, system-ui, -apple-system, BlinkMacSystemFont, 'Segoe UI', sans-serif">1.3k</text><line x1="52" y1="174" x2="764" y2="174" stroke="rgba(0,0,0,0.08)" stroke-width="1" stroke-dasharray="3 3" /><text x="42" y="177.5" text-anchor="end" font-size="11" fill="#636366" font-family="ui-sans-serif, system-ui, -apple-system, BlinkMacSystemFont, 'Segoe UI', sans-serif">2.5k</text><line x1="52" y1="99" x2="764" y2="99" stroke="rgba(0,0,0,0.08)" stroke-width="1" stroke-dasharray="3 3" /><text x="42" y="102.5" text-anchor="end" font-size="11" fill="#636366" font-family="ui-sans-serif, system-ui, -apple-system, BlinkMacSystemFont, 'Segoe UI', sans-serif">3.8k</text><line x1="52" y1="24" x2="764" y2="24" stroke="rgba(0,0,0,0.08)" stroke-width="1" stroke-dasharray="3 3" /><text x="42" y="27.5" text-anchor="end" font-size="11" fill="#636366" font-family="ui-sans-serif, system-ui, -apple-system, BlinkMacSystemFont, 'Segoe UI', sans-serif">5k</text>
  <polygon fill="url(#area-light)" points="52,324 52,323.94 60.89,319.08 69.18,314.22 105.86,309.36 108.59,304.5 109.16,299.64 111.06,294.78 116.08,289.92 117.71,285.06 133.71,280.2 144.86,275.34 153.45,270.48 166.46,265.62 186.47,260.76 195.13,255.9 207.59,251.04 233.23,246.18 254.36,241.32 278.87,236.46 300.97,231.6 323.87,226.74 347.13,221.88 369.56,217.02 393.58,212.16 422.68,207.3 446.66,202.44 467.49,197.58 486.6,192.72 512.86,187.86 537.33,183 556.56,178.14 576.88,173.28 598.99,168.42 621.4,163.56 641.62,158.7 670.5,153.84 675.15,148.98 675.31,144.12 676.46,139.26 681.15,134.4 686.48,129.54 688.86,124.68 699.8,119.82 715.42,114.96 730.79,110.1 733.79,105.24 750.02,100.38 753.46,95.52 761.8,90.66 763.86,90.36 764,90.36 764,324"/>
  <polyline fill="none" stroke="#f59e0b" stroke-width="2.5" stroke-linecap="round" stroke-linejoin="round" points="52,323.94 60.89,319.08 69.18,314.22 105.86,309.36 108.59,304.5 109.16,299.64 111.06,294.78 116.08,289.92 117.71,285.06 133.71,280.2 144.86,275.34 153.45,270.48 166.46,265.62 186.47,260.76 195.13,255.9 207.59,251.04 233.23,246.18 254.36,241.32 278.87,236.46 300.97,231.6 323.87,226.74 347.13,221.88 369.56,217.02 393.58,212.16 422.68,207.3 446.66,202.44 467.49,197.58 486.6,192.72 512.86,187.86 537.33,183 556.56,178.14 576.88,173.28 598.99,168.42 621.4,163.56 641.62,158.7 670.5,153.84 675.15,148.98 675.31,144.12 676.46,139.26 681.15,134.4 686.48,129.54 688.86,124.68 699.8,119.82 715.42,114.96 730.79,110.1 733.79,105.24 750.02,100.38 753.46,95.52 761.8,90.66 763.86,90.36 764,90.36"/>
  <circle cx="764" cy="90.36" r="4" fill="#f59e0b" />
  <text x="52" y="346" text-anchor="start" font-size="11" fill="#636366" font-family="ui-sans-serif, system-ui, -apple-system, BlinkMacSystemFont, 'Segoe UI', sans-serif">2019</text><text x="115.44" y="346" text-anchor="middle" font-size="11" fill="#636366" font-family="ui-sans-serif, system-ui, -apple-system, BlinkMacSystemFont, 'Segoe UI', sans-serif">2020</text><text x="213.09" y="346" text-anchor="middle" font-size="11" fill="#636366" font-family="ui-sans-serif, system-ui, -apple-system, BlinkMacSystemFont, 'Segoe UI', sans-serif">2021</text><text x="310.48" y="346" text-anchor="middle" font-size="11" fill="#636366" font-family="ui-sans-serif, system-ui, -apple-system, BlinkMacSystemFont, 'Segoe UI', sans-serif">2022</text><text x="407.87" y="346" text-anchor="middle" font-size="11" fill="#636366" font-family="ui-sans-serif, system-ui, -apple-system, BlinkMacSystemFont, 'Segoe UI', sans-serif">2023</text><text x="505.26" y="346" text-anchor="middle" font-size="11" fill="#636366" font-family="ui-sans-serif, system-ui, -apple-system, BlinkMacSystemFont, 'Segoe UI', sans-serif">2024</text><text x="602.92" y="346" text-anchor="middle" font-size="11" fill="#636366" font-family="ui-sans-serif, system-ui, -apple-system, BlinkMacSystemFont, 'Segoe UI', sans-serif">2025</text><text x="700.3" y="346" text-anchor="middle" font-size="11" fill="#636366" font-family="ui-sans-serif, system-ui, -apple-system, BlinkMacSystemFont, 'Segoe UI', sans-serif">2026</text>
</svg>
