<?xml version="1.0" encoding="UTF-8"?>
<svg xmlns="http://www.w3.org/2000/svg" width="800" height="360" viewBox="0 0 800 360" role="img" aria-label="Star history of nicejade/markdown-online-editor">
  <defs>
    <linearGradient id="area-dark" x1="0" y1="0" x2="0" y2="1">
      <stop offset="0%" stop-color="#f59e0b" stop-opacity="0.28"/>
      <stop offset="100%" stop-color="#f59e0b" stop-opacity="0"/>
    </linearGradient>
  </defs>
  <line x1="52" y1="324" x2="764" y2="324" stroke="rgba(255,255,255,0.12)" stroke-width="1" /><text x="42" y="327.5" text-anchor="end" font-size="11" fill="#a1a1aa" font-family="ui-sans-serif, system-ui, -apple-system, BlinkMacSystemFont, 'Segoe UI', sans-serif">0</text><line x1="52" y1="249" x2="764" y2="249" stroke="rgba(255,255,255,0.12)" stroke-width="1" stroke-dasharray="3 3" /><text x="42" y="252.5" text-anchor="end" font-size="11" fill="#a1a1aa" font-family="ui-sans-serif, system-ui, -apple-system, BlinkMacSystemFont, 'Segoe UI', sans-serif">1.3k</text><line x1="52" y1="174" x2="764" y2="174" stroke="rgba(255,255,255,0.12)" stroke-width="1" stroke-dasharray="3 3" /><text x="42" y="177.5" text-anchor="end" font-size="11" fill="#a1a1aa" font-family="ui-sans-serif, system-ui, -apple-system, BlinkMacSystemFont, 'Segoe UI', sans-serif">2.5k</text><line x1="52" y1="99" x2="764" y2="99" stroke="rgba(255,255,255,0.12)" stroke-width="1" stroke-dasharray="3 3" /><text x="42" y="102.5" text-anchor="end" font-size="11" fill="#a1a1aa" font-family="ui-sans-serif, system-ui, -apple-system, BlinkMacSystemFont, 'Segoe UI', sans-serif">3.8k</text><line x1="52" y1="24" x2="764" y2="24" stroke="rgba(255,255,255,0.12)" stroke-width="1" stroke-dasharray="3 3" /><text x="42" y="27.5" text-anchor="end" font-size="11" fill="#a1a1aa" font-family="ui-sans-serif, system-ui, -apple-system, BlinkMacSystemFont, 'Segoe UI', sans-serif">5k</text>
  <polygon fill="url(#area-dark)" points="52,324 52,323.94 60.82,319.02 69.09,314.1 105.23,309.18 107.91,304.26 108.61,299.34 110.52,294.42 115.36,289.5 117.13,284.58 135.06,279.66 143.97,274.74 153.61,269.82 167.77,264.9 185.08,259.98 195.92,255.06 208.81,250.14 235.43,245.22 258.17,240.3 281.11,235.38 301.32,230.46 324.57,225.54 351.18,220.62 373.37,215.7 398.39,210.78 426.33,205.86 448.24,200.94 465.06,196.02 489.06,191.1 517.47,186.18 540.48,181.26 558.48,176.34 578.16,171.42 600.06,166.5 622.13,161.58 644.38,156.66 667.58,151.74 667.7,146.82 668.02,141.9 670.65,136.98 678.59,132.06 679.36,127.14 684.89,122.22 699.07,117.3 718.39,112.38 722.77,107.46 739.74,102.54 743.66,97.62 746.08,92.7 756.65,87.78 764,85.2 764,85.2 764,324"/>
  <polyline fill="none" stroke="#f59e0b" stroke-width="2.5" stroke-linecap="round" stroke-linejoin="round" points="52,323.94 60.82,319.02 69.09,314.1 105.23,309.18 107.91,304.26 108.61,299.34 110.52,294.42 115.36,289.5 117.13,284.58 135.06,279.66 143.97,274.74 153.61,269.82 167.77,264.9 185.08,259.98 195.92,255.06 208.81,250.14 235.43,245.22 258.17,240.3 281.11,235.38 301.32,230.46 324.57,225.54 351.18,220.62 373.37,215.7 398.39,210.78 426.33,205.86 448.24,200.94 465.06,196.02 489.06,191.1 517.47,186.18 540.48,181.26 558.48,176.34 578.16,171.42 600.06,166.5 622.13,161.58 644.38,156.66 667.58,151.74 667.7,146.82 668.02,141.9 670.65,136.98 678.59,132.06 679.36,127.14 684.89,122.22 699.07,117.3 718.39,112.38 722.77,107.46 739.74,102.54 743.66,97.62 746.08,92.7 756.65,87.78 764,85.2 764,85.2"/>
  <circle cx="764" cy="85.2" r="4" fill="#f59e0b" />
  <text x="52" y="346" text-anchor="start" font-size="11" fill="#a1a1aa" font-family="ui-sans-serif, system-ui, -apple-system, BlinkMacSystemFont, 'Segoe UI', sans-serif">2019</text><text x="114.67" y="346" text-anchor="middle" font-size="11" fill="#a1a1aa" font-family="ui-sans-serif, system-ui, -apple-system, BlinkMacSystemFont, 'Segoe UI', sans-serif">2020</text><text x="211.15" y="346" text-anchor="middle" font-size="11" fill="#a1a1aa" font-family="ui-sans-serif, system-ui, -apple-system, BlinkMacSystemFont, 'Segoe UI', sans-serif">2021</text><text x="307.36" y="346" text-anchor="middle" font-size="11" fill="#a1a1aa" font-family="ui-sans-serif, system-ui, -apple-system, BlinkMacSystemFont, 'Segoe UI', sans-serif">2022</text><text x="403.57" y="346" text-anchor="middle" font-size="11" fill="#a1a1aa" font-family="ui-sans-serif, system-ui, -apple-system, BlinkMacSystemFont, 'Segoe UI', sans-serif">2023</text><text x="499.78" y="346" text-anchor="middle" font-size="11" fill="#a1a1aa" font-family="ui-sans-serif, system-ui, -apple-system, BlinkMacSystemFont, 'Segoe UI', sans-serif">2024</text><text x="596.26" y="346" text-anchor="middle" font-size="11" fill="#a1a1aa" font-family="ui-sans-serif, system-ui, -apple-system, BlinkMacSystemFont, 'Segoe UI', sans-serif">2025</text><text x="692.47" y="346" text-anchor="middle" font-size="11" fill="#a1a1aa" font-family="ui-sans-serif, system-ui, -apple-system, BlinkMacSystemFont, 'Segoe UI', sans-serif">2026</text>
</svg>
