<?xml version="1.0" encoding="UTF-8"?>
<svg xmlns="http://www.w3.org/2000/svg" width="800" height="360" viewBox="0 0 800 360" role="img" aria-label="Star history of nicejade/markdown-online-editor">
  <defs>
    <linearGradient id="area-dark" x1="0" y1="0" x2="0" y2="1">
      <stop offset="0%" stop-color="#f59e0b" stop-opacity="0.28"/>
      <stop offset="100%" stop-color="#f59e0b" stop-opacity="0"/>
    </linearGradient>
  </defs>
  <line x1="52" y1="324" x2="764" y2="324" stroke="rgba(255,255,255,0.12)" stroke-width="1" /><text x="42" y="327.5" text-anchor="end" font-size="11" fill="#a1a1aa" font-family="ui-sans-serif, system-ui, -apple-system, BlinkMacSystemFont, 'Segoe UI', sans-serif">0</text><line x1="52" y1="249" x2="764" y2="249" stroke="rgba(255,255,255,0.12)" stroke-width="1" stroke-dasharray="3 3" /><text x="42" y="252.5" text-anchor="end" font-size="11" fill="#a1a1aa" font-family="ui-sans-serif, system-ui, -apple-system, BlinkMacSystemFont, 'Segoe UI', sans-serif">1.3k</text><line x1="52" y1="174" x2="764" y2="174" stroke="rgba(255,255,255,0.12)" stroke-width="1" stroke-dasharray="3 3" /><text x="42" y="177.5" text-anchor="end" font-size="11" fill="#a1a1aa" font-family="ui-sans-serif, system-ui, -apple-system, BlinkMacSystemFont, 'Segoe UI', sans-serif">2.5k</text><line x1="52" y1="99" x2="764" y2="99" stroke="rgba(255,255,255,0.12)" stroke-width="1" stroke-dasharray="3 3" /><text x="42" y="102.5" text-anchor="end" font-size="11" fill="#a1a1aa" font-family="ui-sans-serif, system-ui, -apple-system, BlinkMacSystemFont, 'Segoe UI', sans-serif">3.8k</text><line x1="52" y1="24" x2="764" y2="24" stroke="rgba(255,255,255,0.12)" stroke-width="1" stroke-dasharray="3 3" /><text x="42" y="27.5" text-anchor="end" font-size="11" fill="#a1a1aa" font-family="ui-sans-serif, system-ui, -apple-system, BlinkMacSystemFont, 'Segoe UI', sans-serif">5k</text>
  <polygon fill="url(#area-dark)" points="52,324 52,323.94 60.84,319.02 69.14,314.1 105.37,309.18 108.05,304.26 108.76,299.34 110.67,294.42 115.52,289.5 117.3,284.58 135.28,279.66 144.21,274.74 153.87,269.82 168.07,264.9 185.42,259.98 196.29,255.06 209.22,250.14 235.9,245.22 258.71,240.3 281.71,235.38 301.97,230.46 325.27,225.54 351.95,220.62 374.2,215.7 399.29,210.78 427.3,205.86 449.27,200.94 466.13,196.02 490.2,191.1 518.68,186.18 541.75,181.26 559.79,176.34 579.52,171.42 601.48,166.5 623.61,161.58 645.92,156.66 669.17,151.74 669.3,146.82 669.61,141.9 672.26,136.98 680.22,132.06 680.98,127.14 686.54,122.22 700.75,117.3 720.11,112.38 724.51,107.46 741.52,102.54 745.45,97.62 747.88,92.7 758.48,87.78 764,85.44 764,85.44 764,324"/>
  <polyline fill="none" stroke="#f59e0b" stroke-width="2.5" stroke-linecap="round" stroke-linejoin="round" points="52,323.94 60.84,319.02 69.14,314.1 105.37,309.18 108.05,304.26 108.76,299.34 110.67,294.42 115.52,289.5 117.3,284.58 135.28,279.66 144.21,274.74 153.87,269.82 168.07,264.9 185.42,259.98 196.29,255.06 209.22,250.14 235.9,245.22 258.71,240.3 281.71,235.38 301.97,230.46 325.27,225.54 351.95,220.62 374.2,215.7 399.29,210.78 427.3,205.86 449.27,200.94 466.13,196.02 490.2,191.1 518.68,186.18 541.75,181.26 559.79,176.34 579.52,171.42 601.48,166.5 623.61,161.58 645.92,156.66 669.17,151.74 669.3,146.82 669.61,141.9 672.26,136.98 680.22,132.06 680.98,127.14 686.54,122.22 700.75,117.3 720.11,112.38 724.51,107.46 741.52,102.54 745.45,97.62 747.88,92.7 758.48,87.78 764,85.44 764,85.44"/>
  <circle cx="764" cy="85.44" r="4" fill="#f59e0b" />
  <text x="52" y="346" text-anchor="start" font-size="11" fill="#a1a1aa" font-family="ui-sans-serif, system-ui, -apple-system, BlinkMacSystemFont, 'Segoe UI', sans-serif">2019</text><text x="114.83" y="346" text-anchor="middle" font-size="11" fill="#a1a1aa" font-family="ui-sans-serif, system-ui, -apple-system, BlinkMacSystemFont, 'Segoe UI', sans-serif">2020</text><text x="211.56" y="346" text-anchor="middle" font-size="11" fill="#a1a1aa" font-family="ui-sans-serif, system-ui, -apple-system, BlinkMacSystemFont, 'Segoe UI', sans-serif">2021</text><text x="308.02" y="346" text-anchor="middle" font-size="11" fill="#a1a1aa" font-family="ui-sans-serif, system-ui, -apple-system, BlinkMacSystemFont, 'Segoe UI', sans-serif">2022</text><text x="404.48" y="346" text-anchor="middle" font-size="11" fill="#a1a1aa" font-family="ui-sans-serif, system-ui, -apple-system, BlinkMacSystemFont, 'Segoe UI', sans-serif">2023</text><text x="500.94" y="346" text-anchor="middle" font-size="11" fill="#a1a1aa" font-family="ui-sans-serif, system-ui, -apple-system, BlinkMacSystemFont, 'Segoe UI', sans-serif">2024</text><text x="597.67" y="346" text-anchor="middle" font-size="11" fill="#a1a1aa" font-family="ui-sans-serif, system-ui, -apple-system, BlinkMacSystemFont, 'Segoe UI', sans-serif">2025</text><text x="694.13" y="346" text-anchor="middle" font-size="11" fill="#a1a1aa" font-family="ui-sans-serif, system-ui, -apple-system, BlinkMacSystemFont, 'Segoe UI', sans-serif">2026</text>
</svg>
