<?xml version="1.0" encoding="UTF-8"?>
<svg xmlns="http://www.w3.org/2000/svg" width="800" height="360" viewBox="0 0 800 360" role="img" aria-label="Star history of nicejade/markdown-online-editor">
  <defs>
    <linearGradient id="area-dark" x1="0" y1="0" x2="0" y2="1">
      <stop offset="0%" stop-color="#f59e0b" stop-opacity="0.28"/>
      <stop offset="100%" stop-color="#f59e0b" stop-opacity="0"/>
    </linearGradient>
  </defs>
  <line x1="52" y1="324" x2="764" y2="324" stroke="rgba(255,255,255,0.12)" stroke-width="1" /><text x="42" y="327.5" text-anchor="end" font-size="11" fill="#a1a1aa" font-family="ui-sans-serif, system-ui, -apple-system, BlinkMacSystemFont, 'Segoe UI', sans-serif">0</text><line x1="52" y1="249" x2="764" y2="249" stroke="rgba(255,255,255,0.12)" stroke-width="1" stroke-dasharray="3 3" /><text x="42" y="252.5" text-anchor="end" font-size="11" fill="#a1a1aa" font-family="ui-sans-serif, system-ui, -apple-system, BlinkMacSystemFont, 'Segoe UI', sans-serif">1.3k</text><line x1="52" y1="174" x2="764" y2="174" stroke="rgba(255,255,255,0.12)" stroke-width="1" stroke-dasharray="3 3" /><text x="42" y="177.5" text-anchor="end" font-size="11" fill="#a1a1aa" font-family="ui-sans-serif, system-ui, -apple-system, BlinkMacSystemFont, 'Segoe UI', sans-serif">2.5k</text><line x1="52" y1="99" x2="764" y2="99" stroke="rgba(255,255,255,0.12)" stroke-width="1" stroke-dasharray="3 3" /><text x="42" y="102.5" text-anchor="end" font-size="11" fill="#a1a1aa" font-family="ui-sans-serif, system-ui, -apple-system, BlinkMacSystemFont, 'Segoe UI', sans-serif">3.8k</text><line x1="52" y1="24" x2="764" y2="24" stroke="rgba(255,255,255,0.12)" stroke-width="1" stroke-dasharray="3 3" /><text x="42" y="27.5" text-anchor="end" font-size="11" fill="#a1a1aa" font-family="ui-sans-serif, system-ui, -apple-system, BlinkMacSystemFont, 'Segoe UI', sans-serif">5k</text>
  <polygon fill="url(#area-dark)" points="52,324 52,323.94 60.87,319.08 69.15,314.22 105.77,309.36 108.5,304.5 109.06,299.64 110.96,294.78 115.97,289.92 117.6,285.06 133.58,280.2 144.71,275.34 153.28,270.48 166.27,265.62 186.24,260.76 194.89,255.9 207.33,251.04 232.93,246.18 254.02,241.32 278.49,236.46 300.56,231.6 323.42,226.74 346.63,221.88 369.03,217.02 393.01,212.16 422.06,207.3 446,202.44 466.8,197.58 485.88,192.72 512.09,187.86 536.52,183 555.73,178.14 576.25,173.28 598.1,168.42 620.45,163.56 640.7,158.7 669.5,153.84 674.11,148.98 674.28,144.12 675.58,139.26 680.21,134.4 685.43,129.54 687.88,124.68 698.79,119.82 714.55,114.96 729.66,110.1 732.69,105.24 748.86,100.38 752.35,95.52 761.47,90.66 764,89.64 764,89.64 764,324"/>
  <polyline fill="none" stroke="#f59e0b" stroke-width="2.5" stroke-linecap="round" stroke-linejoin="round" points="52,323.94 60.87,319.08 69.15,314.22 105.77,309.36 108.5,304.5 109.06,299.64 110.96,294.78 115.97,289.92 117.6,285.06 133.58,280.2 144.71,275.34 153.28,270.48 166.27,265.62 186.24,260.76 194.89,255.9 207.33,251.04 232.93,246.18 254.02,241.32 278.49,236.46 300.56,231.6 323.42,226.74 346.63,221.88 369.03,217.02 393.01,212.16 422.06,207.3 446,202.44 466.8,197.58 485.88,192.72 512.09,187.86 536.52,183 555.73,178.14 576.25,173.28 598.1,168.42 620.45,163.56 640.7,158.7 669.5,153.84 674.11,148.98 674.28,144.12 675.58,139.26 680.21,134.4 685.43,129.54 687.88,124.68 698.79,119.82 714.55,114.96 729.66,110.1 732.69,105.24 748.86,100.38 752.35,95.52 761.47,90.66 764,89.64 764,89.64"/>
  <circle cx="764" cy="89.64" r="4" fill="#f59e0b" />
  <text x="52" y="346" text-anchor="start" font-size="11" fill="#a1a1aa" font-family="ui-sans-serif, system-ui, -apple-system, BlinkMacSystemFont, 'Segoe UI', sans-serif">2019</text><text x="115.33" y="346" text-anchor="middle" font-size="11" fill="#a1a1aa" font-family="ui-sans-serif, system-ui, -apple-system, BlinkMacSystemFont, 'Segoe UI', sans-serif">2020</text><text x="212.82" y="346" text-anchor="middle" font-size="11" fill="#a1a1aa" font-family="ui-sans-serif, system-ui, -apple-system, BlinkMacSystemFont, 'Segoe UI', sans-serif">2021</text><text x="310.05" y="346" text-anchor="middle" font-size="11" fill="#a1a1aa" font-family="ui-sans-serif, system-ui, -apple-system, BlinkMacSystemFont, 'Segoe UI', sans-serif">2022</text><text x="407.28" y="346" text-anchor="middle" font-size="11" fill="#a1a1aa" font-family="ui-sans-serif, system-ui, -apple-system, BlinkMacSystemFont, 'Segoe UI', sans-serif">2023</text><text x="504.5" y="346" text-anchor="middle" font-size="11" fill="#a1a1aa" font-family="ui-sans-serif, system-ui, -apple-system, BlinkMacSystemFont, 'Segoe UI', sans-serif">2024</text><text x="602" y="346" text-anchor="middle" font-size="11" fill="#a1a1aa" font-family="ui-sans-serif, system-ui, -apple-system, BlinkMacSystemFont, 'Segoe UI', sans-serif">2025</text><text x="699.22" y="346" text-anchor="middle" font-size="11" fill="#a1a1aa" font-family="ui-sans-serif, system-ui, -apple-system, BlinkMacSystemFont, 'Segoe UI', sans-serif">2026</text>
</svg>
