<?xml version="1.0" encoding="UTF-8"?>
<svg xmlns="http://www.w3.org/2000/svg" width="800" height="360" viewBox="0 0 800 360" role="img" aria-label="Star history of nicejade/markdown-online-editor">
  <defs>
    <linearGradient id="area-dark" x1="0" y1="0" x2="0" y2="1">
      <stop offset="0%" stop-color="#f59e0b" stop-opacity="0.28"/>
      <stop offset="100%" stop-color="#f59e0b" stop-opacity="0"/>
    </linearGradient>
  </defs>
  <line x1="52" y1="324" x2="764" y2="324" stroke="rgba(255,255,255,0.12)" stroke-width="1" /><text x="42" y="327.5" text-anchor="end" font-size="11" fill="#a1a1aa" font-family="ui-sans-serif, system-ui, -apple-system, BlinkMacSystemFont, 'Segoe UI', sans-serif">0</text><line x1="52" y1="249" x2="764" y2="249" stroke="rgba(255,255,255,0.12)" stroke-width="1" stroke-dasharray="3 3" /><text x="42" y="252.5" text-anchor="end" font-size="11" fill="#a1a1aa" font-family="ui-sans-serif, system-ui, -apple-system, BlinkMacSystemFont, 'Segoe UI', sans-serif">1.3k</text><line x1="52" y1="174" x2="764" y2="174" stroke="rgba(255,255,255,0.12)" stroke-width="1" stroke-dasharray="3 3" /><text x="42" y="177.5" text-anchor="end" font-size="11" fill="#a1a1aa" font-family="ui-sans-serif, system-ui, -apple-system, BlinkMacSystemFont, 'Segoe UI', sans-serif">2.5k</text><line x1="52" y1="99" x2="764" y2="99" stroke="rgba(255,255,255,0.12)" stroke-width="1" stroke-dasharray="3 3" /><text x="42" y="102.5" text-anchor="end" font-size="11" fill="#a1a1aa" font-family="ui-sans-serif, system-ui, -apple-system, BlinkMacSystemFont, 'Segoe UI', sans-serif">3.8k</text><line x1="52" y1="24" x2="764" y2="24" stroke="rgba(255,255,255,0.12)" stroke-width="1" stroke-dasharray="3 3" /><text x="42" y="27.5" text-anchor="end" font-size="11" fill="#a1a1aa" font-family="ui-sans-serif, system-ui, -apple-system, BlinkMacSystemFont, 'Segoe UI', sans-serif">5k</text>
  <polygon fill="url(#area-dark)" points="52,324 52,323.94 60.87,319.02 69.19,314.1 105.53,309.18 108.22,304.26 108.93,299.34 110.84,294.42 115.71,289.5 117.5,284.58 135.52,279.66 144.48,274.74 154.17,269.82 168.41,264.9 185.82,259.98 196.71,255.06 209.68,250.14 236.44,245.22 259.31,240.3 282.38,235.38 302.7,230.46 326.08,225.54 352.83,220.62 375.15,215.7 400.31,210.78 428.4,205.86 450.43,200.94 467.35,196.02 491.48,191.1 520.05,186.18 543.18,181.26 561.28,176.34 581.1,171.42 603.94,166.5 625.42,161.58 647.68,156.66 670.98,151.74 671.11,146.82 671.43,141.9 674.09,136.98 682.07,132.06 682.84,127.14 688.46,122.22 703.26,117.3 722.11,112.38 726.5,107.46 744.02,102.54 747.49,97.62 749.94,92.7 760.55,87.78 763.68,85.92 764,85.92 764,324"/>
  <polyline fill="none" stroke="#f59e0b" stroke-width="2.5" stroke-linecap="round" stroke-linejoin="round" points="52,323.94 60.87,319.02 69.19,314.1 105.53,309.18 108.22,304.26 108.93,299.34 110.84,294.42 115.71,289.5 117.5,284.58 135.52,279.66 144.48,274.74 154.17,269.82 168.41,264.9 185.82,259.98 196.71,255.06 209.68,250.14 236.44,245.22 259.31,240.3 282.38,235.38 302.7,230.46 326.08,225.54 352.83,220.62 375.15,215.7 400.31,210.78 428.4,205.86 450.43,200.94 467.35,196.02 491.48,191.1 520.05,186.18 543.18,181.26 561.28,176.34 581.1,171.42 603.94,166.5 625.42,161.58 647.68,156.66 670.98,151.74 671.11,146.82 671.43,141.9 674.09,136.98 682.07,132.06 682.84,127.14 688.46,122.22 703.26,117.3 722.11,112.38 726.5,107.46 744.02,102.54 747.49,97.62 749.94,92.7 760.55,87.78 763.68,85.92 764,85.92"/>
  <circle cx="764" cy="85.92" r="4" fill="#f59e0b" />
  <text x="52" y="346" text-anchor="start" font-size="11" fill="#a1a1aa" font-family="ui-sans-serif, system-ui, -apple-system, BlinkMacSystemFont, 'Segoe UI', sans-serif">2019</text><text x="115.02" y="346" text-anchor="middle" font-size="11" fill="#a1a1aa" font-family="ui-sans-serif, system-ui, -apple-system, BlinkMacSystemFont, 'Segoe UI', sans-serif">2020</text><text x="212.03" y="346" text-anchor="middle" font-size="11" fill="#a1a1aa" font-family="ui-sans-serif, system-ui, -apple-system, BlinkMacSystemFont, 'Segoe UI', sans-serif">2021</text><text x="308.77" y="346" text-anchor="middle" font-size="11" fill="#a1a1aa" font-family="ui-sans-serif, system-ui, -apple-system, BlinkMacSystemFont, 'Segoe UI', sans-serif">2022</text><text x="405.52" y="346" text-anchor="middle" font-size="11" fill="#a1a1aa" font-family="ui-sans-serif, system-ui, -apple-system, BlinkMacSystemFont, 'Segoe UI', sans-serif">2023</text><text x="502.26" y="346" text-anchor="middle" font-size="11" fill="#a1a1aa" font-family="ui-sans-serif, system-ui, -apple-system, BlinkMacSystemFont, 'Segoe UI', sans-serif">2024</text><text x="599.27" y="346" text-anchor="middle" font-size="11" fill="#a1a1aa" font-family="ui-sans-serif, system-ui, -apple-system, BlinkMacSystemFont, 'Segoe UI', sans-serif">2025</text><text x="696.02" y="346" text-anchor="middle" font-size="11" fill="#a1a1aa" font-family="ui-sans-serif, system-ui, -apple-system, BlinkMacSystemFont, 'Segoe UI', sans-serif">2026</text>
</svg>
