<?xml version="1.0" encoding="UTF-8"?>
<svg xmlns="http://www.w3.org/2000/svg" width="800" height="360" viewBox="0 0 800 360" role="img" aria-label="Star history of nicejade/markdown-online-editor">
  <defs>
    <linearGradient id="area-dark" x1="0" y1="0" x2="0" y2="1">
      <stop offset="0%" stop-color="#f59e0b" stop-opacity="0.28"/>
      <stop offset="100%" stop-color="#f59e0b" stop-opacity="0"/>
    </linearGradient>
  </defs>
  <line x1="52" y1="324" x2="764" y2="324" stroke="rgba(255,255,255,0.12)" stroke-width="1" /><text x="42" y="327.5" text-anchor="end" font-size="11" fill="#a1a1aa" font-family="ui-sans-serif, system-ui, -apple-system, BlinkMacSystemFont, 'Segoe UI', sans-serif">0</text><line x1="52" y1="249" x2="764" y2="249" stroke="rgba(255,255,255,0.12)" stroke-width="1" stroke-dasharray="3 3" /><text x="42" y="252.5" text-anchor="end" font-size="11" fill="#a1a1aa" font-family="ui-sans-serif, system-ui, -apple-system, BlinkMacSystemFont, 'Segoe UI', sans-serif">1.3k</text><line x1="52" y1="174" x2="764" y2="174" stroke="rgba(255,255,255,0.12)" stroke-width="1" stroke-dasharray="3 3" /><text x="42" y="177.5" text-anchor="end" font-size="11" fill="#a1a1aa" font-family="ui-sans-serif, system-ui, -apple-system, BlinkMacSystemFont, 'Segoe UI', sans-serif">2.5k</text><line x1="52" y1="99" x2="764" y2="99" stroke="rgba(255,255,255,0.12)" stroke-width="1" stroke-dasharray="3 3" /><text x="42" y="102.5" text-anchor="end" font-size="11" fill="#a1a1aa" font-family="ui-sans-serif, system-ui, -apple-system, BlinkMacSystemFont, 'Segoe UI', sans-serif">3.8k</text><line x1="52" y1="24" x2="764" y2="24" stroke="rgba(255,255,255,0.12)" stroke-width="1" stroke-dasharray="3 3" /><text x="42" y="27.5" text-anchor="end" font-size="11" fill="#a1a1aa" font-family="ui-sans-serif, system-ui, -apple-system, BlinkMacSystemFont, 'Segoe UI', sans-serif">5k</text>
  <polygon fill="url(#area-dark)" points="52,324 52,323.94 60.87,319.08 69.16,314.22 105.78,309.36 108.51,304.5 109.08,299.64 110.98,294.78 115.99,289.92 117.62,285.06 133.6,280.2 144.73,275.34 153.3,270.48 166.3,265.62 186.28,260.76 194.92,255.9 207.36,251.04 232.97,246.18 254.07,241.32 278.54,236.46 300.62,231.6 323.48,226.74 346.71,221.88 369.1,217.02 393.09,212.16 422.15,207.3 446.1,202.44 466.9,197.58 485.98,192.72 512.2,187.86 536.64,183 555.84,178.14 576.13,173.28 598.22,168.42 620.59,163.56 640.78,158.7 669.61,153.84 674.26,148.98 674.43,144.12 675.57,139.26 680.25,134.4 685.58,129.54 688,124.68 698.94,119.82 714.67,114.96 729.83,110.1 732.85,105.24 749.03,100.38 752.51,95.52 761.59,90.66 762.84,90.42 764,90.42 764,324"/>
  <polyline fill="none" stroke="#f59e0b" stroke-width="2.5" stroke-linecap="round" stroke-linejoin="round" points="52,323.94 60.87,319.08 69.16,314.22 105.78,309.36 108.51,304.5 109.08,299.64 110.98,294.78 115.99,289.92 117.62,285.06 133.6,280.2 144.73,275.34 153.3,270.48 166.3,265.62 186.28,260.76 194.92,255.9 207.36,251.04 232.97,246.18 254.07,241.32 278.54,236.46 300.62,231.6 323.48,226.74 346.71,221.88 369.1,217.02 393.09,212.16 422.15,207.3 446.1,202.44 466.9,197.58 485.98,192.72 512.2,187.86 536.64,183 555.84,178.14 576.13,173.28 598.22,168.42 620.59,163.56 640.78,158.7 669.61,153.84 674.26,148.98 674.43,144.12 675.57,139.26 680.25,134.4 685.58,129.54 688,124.68 698.94,119.82 714.67,114.96 729.83,110.1 732.85,105.24 749.03,100.38 752.51,95.52 761.59,90.66 762.84,90.42 764,90.42"/>
  <circle cx="764" cy="90.42" r="4" fill="#f59e0b" />
  <text x="52" y="346" text-anchor="start" font-size="11" fill="#a1a1aa" font-family="ui-sans-serif, system-ui, -apple-system, BlinkMacSystemFont, 'Segoe UI', sans-serif">2019</text><text x="115.35" y="346" text-anchor="middle" font-size="11" fill="#a1a1aa" font-family="ui-sans-serif, system-ui, -apple-system, BlinkMacSystemFont, 'Segoe UI', sans-serif">2020</text><text x="212.86" y="346" text-anchor="middle" font-size="11" fill="#a1a1aa" font-family="ui-sans-serif, system-ui, -apple-system, BlinkMacSystemFont, 'Segoe UI', sans-serif">2021</text><text x="310.11" y="346" text-anchor="middle" font-size="11" fill="#a1a1aa" font-family="ui-sans-serif, system-ui, -apple-system, BlinkMacSystemFont, 'Segoe UI', sans-serif">2022</text><text x="407.36" y="346" text-anchor="middle" font-size="11" fill="#a1a1aa" font-family="ui-sans-serif, system-ui, -apple-system, BlinkMacSystemFont, 'Segoe UI', sans-serif">2023</text><text x="504.61" y="346" text-anchor="middle" font-size="11" fill="#a1a1aa" font-family="ui-sans-serif, system-ui, -apple-system, BlinkMacSystemFont, 'Segoe UI', sans-serif">2024</text><text x="602.13" y="346" text-anchor="middle" font-size="11" fill="#a1a1aa" font-family="ui-sans-serif, system-ui, -apple-system, BlinkMacSystemFont, 'Segoe UI', sans-serif">2025</text><text x="699.38" y="346" text-anchor="middle" font-size="11" fill="#a1a1aa" font-family="ui-sans-serif, system-ui, -apple-system, BlinkMacSystemFont, 'Segoe UI', sans-serif">2026</text>
</svg>
