<?xml version="1.0" encoding="UTF-8"?>
<svg xmlns="http://www.w3.org/2000/svg" width="800" height="360" viewBox="0 0 800 360" role="img" aria-label="Star history of nicejade/markdown-online-editor">
  <defs>
    <linearGradient id="area-light" x1="0" y1="0" x2="0" y2="1">
      <stop offset="0%" stop-color="#f59e0b" stop-opacity="0.22"/>
      <stop offset="100%" stop-color="#f59e0b" stop-opacity="0"/>
    </linearGradient>
  </defs>
  <line x1="52" y1="324" x2="764" y2="324" stroke="rgba(0,0,0,0.08)" stroke-width="1" /><text x="42" y="327.5" text-anchor="end" font-size="11" fill="#636366" font-family="ui-sans-serif, system-ui, -apple-system, BlinkMacSystemFont, 'Segoe UI', sans-serif">0</text><line x1="52" y1="249" x2="764" y2="249" stroke="rgba(0,0,0,0.08)" stroke-width="1" stroke-dasharray="3 3" /><text x="42" y="252.5" text-anchor="end" font-size="11" fill="#636366" font-family="ui-sans-serif, system-ui, -apple-system, BlinkMacSystemFont, 'Segoe UI', sans-serif">1.3k</text><line x1="52" y1="174" x2="764" y2="174" stroke="rgba(0,0,0,0.08)" stroke-width="1" stroke-dasharray="3 3" /><text x="42" y="177.5" text-anchor="end" font-size="11" fill="#636366" font-family="ui-sans-serif, system-ui, -apple-system, BlinkMacSystemFont, 'Segoe UI', sans-serif">2.5k</text><line x1="52" y1="99" x2="764" y2="99" stroke="rgba(0,0,0,0.08)" stroke-width="1" stroke-dasharray="3 3" /><text x="42" y="102.5" text-anchor="end" font-size="11" fill="#636366" font-family="ui-sans-serif, system-ui, -apple-system, BlinkMacSystemFont, 'Segoe UI', sans-serif">3.8k</text><line x1="52" y1="24" x2="764" y2="24" stroke="rgba(0,0,0,0.08)" stroke-width="1" stroke-dasharray="3 3" /><text x="42" y="27.5" text-anchor="end" font-size="11" fill="#636366" font-family="ui-sans-serif, system-ui, -apple-system, BlinkMacSystemFont, 'Segoe UI', sans-serif">5k</text>
  <polygon fill="url(#area-light)" points="52,324 52,323.94 60.89,319.02 69.23,314.1 105.66,309.18 108.36,304.26 109.07,299.34 110.99,294.42 115.87,289.5 117.66,284.58 135.74,279.66 144.72,274.74 154.43,269.82 168.71,264.9 186.16,259.98 197.09,255.06 210.09,250.14 236.92,245.22 259.85,240.3 282.98,235.38 303.35,230.46 326.79,225.54 353.61,220.62 375.98,215.7 401.21,210.78 429.37,205.86 451.47,200.94 468.43,196.02 492.62,191.1 521.26,186.18 544.46,181.26 562.6,176.34 582.47,171.42 605.38,166.5 626.91,161.58 649.22,156.66 672.59,151.74 672.71,146.82 673.03,141.9 675.7,136.98 683.7,132.06 684.47,127.14 690.11,122.22 704.95,117.3 723.85,112.38 728.24,107.46 745.82,102.54 749.3,97.62 751.75,92.7 762.39,87.78 764,86.22 764,86.22 764,324"/>
  <polyline fill="none" stroke="#f59e0b" stroke-width="2.5" stroke-linecap="round" stroke-linejoin="round" points="52,323.94 60.89,319.02 69.23,314.1 105.66,309.18 108.36,304.26 109.07,299.34 110.99,294.42 115.87,289.5 117.66,284.58 135.74,279.66 144.72,274.74 154.43,269.82 168.71,264.9 186.16,259.98 197.09,255.06 210.09,250.14 236.92,245.22 259.85,240.3 282.98,235.38 303.35,230.46 326.79,225.54 353.61,220.62 375.98,215.7 401.21,210.78 429.37,205.86 451.47,200.94 468.43,196.02 492.62,191.1 521.26,186.18 544.46,181.26 562.6,176.34 582.47,171.42 605.38,166.5 626.91,161.58 649.22,156.66 672.59,151.74 672.71,146.82 673.03,141.9 675.7,136.98 683.7,132.06 684.47,127.14 690.11,122.22 704.95,117.3 723.85,112.38 728.24,107.46 745.82,102.54 749.3,97.62 751.75,92.7 762.39,87.78 764,86.22 764,86.22"/>
  <circle cx="764" cy="86.22" r="4" fill="#f59e0b" />
  <text x="52" y="346" text-anchor="start" font-size="11" fill="#636366" font-family="ui-sans-serif, system-ui, -apple-system, BlinkMacSystemFont, 'Segoe UI', sans-serif">2019</text><text x="115.18" y="346" text-anchor="middle" font-size="11" fill="#636366" font-family="ui-sans-serif, system-ui, -apple-system, BlinkMacSystemFont, 'Segoe UI', sans-serif">2020</text><text x="212.44" y="346" text-anchor="middle" font-size="11" fill="#636366" font-family="ui-sans-serif, system-ui, -apple-system, BlinkMacSystemFont, 'Segoe UI', sans-serif">2021</text><text x="309.44" y="346" text-anchor="middle" font-size="11" fill="#636366" font-family="ui-sans-serif, system-ui, -apple-system, BlinkMacSystemFont, 'Segoe UI', sans-serif">2022</text><text x="406.43" y="346" text-anchor="middle" font-size="11" fill="#636366" font-family="ui-sans-serif, system-ui, -apple-system, BlinkMacSystemFont, 'Segoe UI', sans-serif">2023</text><text x="503.43" y="346" text-anchor="middle" font-size="11" fill="#636366" font-family="ui-sans-serif, system-ui, -apple-system, BlinkMacSystemFont, 'Segoe UI', sans-serif">2024</text><text x="600.69" y="346" text-anchor="middle" font-size="11" fill="#636366" font-family="ui-sans-serif, system-ui, -apple-system, BlinkMacSystemFont, 'Segoe UI', sans-serif">2025</text><text x="697.68" y="346" text-anchor="middle" font-size="11" fill="#636366" font-family="ui-sans-serif, system-ui, -apple-system, BlinkMacSystemFont, 'Segoe UI', sans-serif">2026</text>
</svg>
