<?xml version="1.0" encoding="UTF-8"?>
<svg xmlns="http://www.w3.org/2000/svg" width="800" height="360" viewBox="0 0 800 360" role="img" aria-label="Star history of nicejade/markdown-online-editor">
  <defs>
    <linearGradient id="area-dark" x1="0" y1="0" x2="0" y2="1">
      <stop offset="0%" stop-color="#f59e0b" stop-opacity="0.28"/>
      <stop offset="100%" stop-color="#f59e0b" stop-opacity="0"/>
    </linearGradient>
  </defs>
  <line x1="52" y1="324" x2="764" y2="324" stroke="rgba(255,255,255,0.12)" stroke-width="1" /><text x="42" y="327.5" text-anchor="end" font-size="11" fill="#a1a1aa" font-family="ui-sans-serif, system-ui, -apple-system, BlinkMacSystemFont, 'Segoe UI', sans-serif">0</text><line x1="52" y1="249" x2="764" y2="249" stroke="rgba(255,255,255,0.12)" stroke-width="1" stroke-dasharray="3 3" /><text x="42" y="252.5" text-anchor="end" font-size="11" fill="#a1a1aa" font-family="ui-sans-serif, system-ui, -apple-system, BlinkMacSystemFont, 'Segoe UI', sans-serif">1.3k</text><line x1="52" y1="174" x2="764" y2="174" stroke="rgba(255,255,255,0.12)" stroke-width="1" stroke-dasharray="3 3" /><text x="42" y="177.5" text-anchor="end" font-size="11" fill="#a1a1aa" font-family="ui-sans-serif, system-ui, -apple-system, BlinkMacSystemFont, 'Segoe UI', sans-serif">2.5k</text><line x1="52" y1="99" x2="764" y2="99" stroke="rgba(255,255,255,0.12)" stroke-width="1" stroke-dasharray="3 3" /><text x="42" y="102.5" text-anchor="end" font-size="11" fill="#a1a1aa" font-family="ui-sans-serif, system-ui, -apple-system, BlinkMacSystemFont, 'Segoe UI', sans-serif">3.8k</text><line x1="52" y1="24" x2="764" y2="24" stroke="rgba(255,255,255,0.12)" stroke-width="1" stroke-dasharray="3 3" /><text x="42" y="27.5" text-anchor="end" font-size="11" fill="#a1a1aa" font-family="ui-sans-serif, system-ui, -apple-system, BlinkMacSystemFont, 'Segoe UI', sans-serif">5k</text>
  <polygon fill="url(#area-dark)" points="52,324 52,323.94 60.84,319.02 69.13,314.1 105.35,309.18 108.03,304.26 108.74,299.34 110.65,294.42 115.5,289.5 117.28,284.58 135.24,279.66 144.17,274.74 153.83,269.82 168.02,264.9 185.37,259.98 196.23,255.06 209.15,250.14 235.83,245.22 258.62,240.3 281.62,235.38 301.87,230.46 325.17,225.54 351.83,220.62 374.07,215.7 399.15,210.78 427.15,205.86 449.11,200.94 465.97,196.02 490.02,191.1 518.49,186.18 541.55,181.26 559.59,176.34 579.31,171.42 601.26,166.5 623.38,161.58 645.68,156.66 668.93,151.74 669.05,146.82 669.37,141.9 672.01,136.98 679.97,132.06 680.73,127.14 686.28,122.22 700.49,117.3 719.85,112.38 724.24,107.46 741.25,102.54 745.18,97.62 747.6,92.7 758.2,87.78 763.98,85.38 764,85.38 764,324"/>
  <polyline fill="none" stroke="#f59e0b" stroke-width="2.5" stroke-linecap="round" stroke-linejoin="round" points="52,323.94 60.84,319.02 69.13,314.1 105.35,309.18 108.03,304.26 108.74,299.34 110.65,294.42 115.5,289.5 117.28,284.58 135.24,279.66 144.17,274.74 153.83,269.82 168.02,264.9 185.37,259.98 196.23,255.06 209.15,250.14 235.83,245.22 258.62,240.3 281.62,235.38 301.87,230.46 325.17,225.54 351.83,220.62 374.07,215.7 399.15,210.78 427.15,205.86 449.11,200.94 465.97,196.02 490.02,191.1 518.49,186.18 541.55,181.26 559.59,176.34 579.31,171.42 601.26,166.5 623.38,161.58 645.68,156.66 668.93,151.74 669.05,146.82 669.37,141.9 672.01,136.98 679.97,132.06 680.73,127.14 686.28,122.22 700.49,117.3 719.85,112.38 724.24,107.46 741.25,102.54 745.18,97.62 747.6,92.7 758.2,87.78 763.98,85.38 764,85.38"/>
  <circle cx="764" cy="85.38" r="4" fill="#f59e0b" />
  <text x="52" y="346" text-anchor="start" font-size="11" fill="#a1a1aa" font-family="ui-sans-serif, system-ui, -apple-system, BlinkMacSystemFont, 'Segoe UI', sans-serif">2019</text><text x="114.81" y="346" text-anchor="middle" font-size="11" fill="#a1a1aa" font-family="ui-sans-serif, system-ui, -apple-system, BlinkMacSystemFont, 'Segoe UI', sans-serif">2020</text><text x="211.5" y="346" text-anchor="middle" font-size="11" fill="#a1a1aa" font-family="ui-sans-serif, system-ui, -apple-system, BlinkMacSystemFont, 'Segoe UI', sans-serif">2021</text><text x="307.92" y="346" text-anchor="middle" font-size="11" fill="#a1a1aa" font-family="ui-sans-serif, system-ui, -apple-system, BlinkMacSystemFont, 'Segoe UI', sans-serif">2022</text><text x="404.34" y="346" text-anchor="middle" font-size="11" fill="#a1a1aa" font-family="ui-sans-serif, system-ui, -apple-system, BlinkMacSystemFont, 'Segoe UI', sans-serif">2023</text><text x="500.76" y="346" text-anchor="middle" font-size="11" fill="#a1a1aa" font-family="ui-sans-serif, system-ui, -apple-system, BlinkMacSystemFont, 'Segoe UI', sans-serif">2024</text><text x="597.45" y="346" text-anchor="middle" font-size="11" fill="#a1a1aa" font-family="ui-sans-serif, system-ui, -apple-system, BlinkMacSystemFont, 'Segoe UI', sans-serif">2025</text><text x="693.88" y="346" text-anchor="middle" font-size="11" fill="#a1a1aa" font-family="ui-sans-serif, system-ui, -apple-system, BlinkMacSystemFont, 'Segoe UI', sans-serif">2026</text>
</svg>
