<?xml version="1.0" encoding="UTF-8"?>
<svg xmlns="http://www.w3.org/2000/svg" width="800" height="360" viewBox="0 0 800 360" role="img" aria-label="Star history of nicejade/markdown-online-editor">
  <defs>
    <linearGradient id="area-light" x1="0" y1="0" x2="0" y2="1">
      <stop offset="0%" stop-color="#f59e0b" stop-opacity="0.22"/>
      <stop offset="100%" stop-color="#f59e0b" stop-opacity="0"/>
    </linearGradient>
  </defs>
  <line x1="52" y1="324" x2="764" y2="324" stroke="rgba(0,0,0,0.08)" stroke-width="1" /><text x="42" y="327.5" text-anchor="end" font-size="11" fill="#636366" font-family="ui-sans-serif, system-ui, -apple-system, BlinkMacSystemFont, 'Segoe UI', sans-serif">0</text><line x1="52" y1="249" x2="764" y2="249" stroke="rgba(0,0,0,0.08)" stroke-width="1" stroke-dasharray="3 3" /><text x="42" y="252.5" text-anchor="end" font-size="11" fill="#636366" font-family="ui-sans-serif, system-ui, -apple-system, BlinkMacSystemFont, 'Segoe UI', sans-serif">1.3k</text><line x1="52" y1="174" x2="764" y2="174" stroke="rgba(0,0,0,0.08)" stroke-width="1" stroke-dasharray="3 3" /><text x="42" y="177.5" text-anchor="end" font-size="11" fill="#636366" font-family="ui-sans-serif, system-ui, -apple-system, BlinkMacSystemFont, 'Segoe UI', sans-serif">2.5k</text><line x1="52" y1="99" x2="764" y2="99" stroke="rgba(0,0,0,0.08)" stroke-width="1" stroke-dasharray="3 3" /><text x="42" y="102.5" text-anchor="end" font-size="11" fill="#636366" font-family="ui-sans-serif, system-ui, -apple-system, BlinkMacSystemFont, 'Segoe UI', sans-serif">3.8k</text><line x1="52" y1="24" x2="764" y2="24" stroke="rgba(0,0,0,0.08)" stroke-width="1" stroke-dasharray="3 3" /><text x="42" y="27.5" text-anchor="end" font-size="11" fill="#636366" font-family="ui-sans-serif, system-ui, -apple-system, BlinkMacSystemFont, 'Segoe UI', sans-serif">5k</text>
  <polygon fill="url(#area-light)" points="52,324 52,323.94 60.89,319.02 69.23,314.1 105.65,309.18 108.35,304.26 109.05,299.34 110.98,294.42 115.85,289.5 117.64,284.58 135.71,279.66 144.69,274.74 154.4,269.82 168.67,264.9 186.12,259.98 197.04,255.06 210.03,250.14 236.86,245.22 259.78,240.3 282.9,235.38 303.27,230.46 326.7,225.54 353.51,220.62 375.88,215.7 401.09,210.78 429.25,205.86 451.33,200.94 468.29,196.02 492.48,191.1 521.11,186.18 544.29,181.26 562.43,176.34 582.3,171.42 605.19,166.5 626.72,161.58 649.03,156.66 672.38,151.74 672.51,146.82 672.83,141.9 675.49,136.98 683.49,132.06 684.26,127.14 689.89,122.22 704.73,117.3 723.63,112.38 728.02,107.46 745.59,102.54 749.06,97.62 751.52,92.7 762.15,87.78 763.96,86.04 764,86.04 764,324"/>
  <polyline fill="none" stroke="#f59e0b" stroke-width="2.5" stroke-linecap="round" stroke-linejoin="round" points="52,323.94 60.89,319.02 69.23,314.1 105.65,309.18 108.35,304.26 109.05,299.34 110.98,294.42 115.85,289.5 117.64,284.58 135.71,279.66 144.69,274.74 154.4,269.82 168.67,264.9 186.12,259.98 197.04,255.06 210.03,250.14 236.86,245.22 259.78,240.3 282.9,235.38 303.27,230.46 326.7,225.54 353.51,220.62 375.88,215.7 401.09,210.78 429.25,205.86 451.33,200.94 468.29,196.02 492.48,191.1 521.11,186.18 544.29,181.26 562.43,176.34 582.3,171.42 605.19,166.5 626.72,161.58 649.03,156.66 672.38,151.74 672.51,146.82 672.83,141.9 675.49,136.98 683.49,132.06 684.26,127.14 689.89,122.22 704.73,117.3 723.63,112.38 728.02,107.46 745.59,102.54 749.06,97.62 751.52,92.7 762.15,87.78 763.96,86.04 764,86.04"/>
  <circle cx="764" cy="86.04" r="4" fill="#f59e0b" />
  <text x="52" y="346" text-anchor="start" font-size="11" fill="#636366" font-family="ui-sans-serif, system-ui, -apple-system, BlinkMacSystemFont, 'Segoe UI', sans-serif">2019</text><text x="115.16" y="346" text-anchor="middle" font-size="11" fill="#636366" font-family="ui-sans-serif, system-ui, -apple-system, BlinkMacSystemFont, 'Segoe UI', sans-serif">2020</text><text x="212.39" y="346" text-anchor="middle" font-size="11" fill="#636366" font-family="ui-sans-serif, system-ui, -apple-system, BlinkMacSystemFont, 'Segoe UI', sans-serif">2021</text><text x="309.35" y="346" text-anchor="middle" font-size="11" fill="#636366" font-family="ui-sans-serif, system-ui, -apple-system, BlinkMacSystemFont, 'Segoe UI', sans-serif">2022</text><text x="406.31" y="346" text-anchor="middle" font-size="11" fill="#636366" font-family="ui-sans-serif, system-ui, -apple-system, BlinkMacSystemFont, 'Segoe UI', sans-serif">2023</text><text x="503.28" y="346" text-anchor="middle" font-size="11" fill="#636366" font-family="ui-sans-serif, system-ui, -apple-system, BlinkMacSystemFont, 'Segoe UI', sans-serif">2024</text><text x="600.51" y="346" text-anchor="middle" font-size="11" fill="#636366" font-family="ui-sans-serif, system-ui, -apple-system, BlinkMacSystemFont, 'Segoe UI', sans-serif">2025</text><text x="697.47" y="346" text-anchor="middle" font-size="11" fill="#636366" font-family="ui-sans-serif, system-ui, -apple-system, BlinkMacSystemFont, 'Segoe UI', sans-serif">2026</text>
</svg>
