<?xml version="1.0" encoding="UTF-8"?>
<svg xmlns="http://www.w3.org/2000/svg" width="800" height="360" viewBox="0 0 800 360" role="img" aria-label="Star history of nicejade/markdown-online-editor">
  <defs>
    <linearGradient id="area-light" x1="0" y1="0" x2="0" y2="1">
      <stop offset="0%" stop-color="#f59e0b" stop-opacity="0.22"/>
      <stop offset="100%" stop-color="#f59e0b" stop-opacity="0"/>
    </linearGradient>
  </defs>
  <line x1="52" y1="324" x2="764" y2="324" stroke="rgba(0,0,0,0.08)" stroke-width="1" /><text x="42" y="327.5" text-anchor="end" font-size="11" fill="#636366" font-family="ui-sans-serif, system-ui, -apple-system, BlinkMacSystemFont, 'Segoe UI', sans-serif">0</text><line x1="52" y1="249" x2="764" y2="249" stroke="rgba(0,0,0,0.08)" stroke-width="1" stroke-dasharray="3 3" /><text x="42" y="252.5" text-anchor="end" font-size="11" fill="#636366" font-family="ui-sans-serif, system-ui, -apple-system, BlinkMacSystemFont, 'Segoe UI', sans-serif">1.3k</text><line x1="52" y1="174" x2="764" y2="174" stroke="rgba(0,0,0,0.08)" stroke-width="1" stroke-dasharray="3 3" /><text x="42" y="177.5" text-anchor="end" font-size="11" fill="#636366" font-family="ui-sans-serif, system-ui, -apple-system, BlinkMacSystemFont, 'Segoe UI', sans-serif">2.5k</text><line x1="52" y1="99" x2="764" y2="99" stroke="rgba(0,0,0,0.08)" stroke-width="1" stroke-dasharray="3 3" /><text x="42" y="102.5" text-anchor="end" font-size="11" fill="#636366" font-family="ui-sans-serif, system-ui, -apple-system, BlinkMacSystemFont, 'Segoe UI', sans-serif">3.8k</text><line x1="52" y1="24" x2="764" y2="24" stroke="rgba(0,0,0,0.08)" stroke-width="1" stroke-dasharray="3 3" /><text x="42" y="27.5" text-anchor="end" font-size="11" fill="#636366" font-family="ui-sans-serif, system-ui, -apple-system, BlinkMacSystemFont, 'Segoe UI', sans-serif">5k</text>
  <polygon fill="url(#area-light)" points="52,324 52,323.94 60.87,319.08 69.15,314.22 105.77,309.36 108.49,304.5 109.06,299.64 110.96,294.78 115.97,289.92 117.6,285.06 133.57,280.2 144.7,275.34 153.28,270.48 166.27,265.62 186.24,260.76 194.88,255.9 207.32,251.04 232.92,246.18 254.01,241.32 278.48,236.46 300.55,231.6 323.41,226.74 346.62,221.88 369.01,217.02 392.99,212.16 422.04,207.3 445.98,202.44 466.78,197.58 485.86,192.72 512.07,187.86 536.5,183 555.71,178.14 576.22,173.28 598.07,168.42 620.43,163.56 640.68,158.7 669.47,153.84 674.08,148.98 674.26,144.12 675.55,139.26 680.18,134.4 685.4,129.54 687.85,124.68 698.76,119.82 714.52,114.96 729.64,110.1 732.66,105.24 748.83,100.38 752.32,95.52 761.44,90.66 764,88.74 764,88.74 764,324"/>
  <polyline fill="none" stroke="#f59e0b" stroke-width="2.5" stroke-linecap="round" stroke-linejoin="round" points="52,323.94 60.87,319.08 69.15,314.22 105.77,309.36 108.49,304.5 109.06,299.64 110.96,294.78 115.97,289.92 117.6,285.06 133.57,280.2 144.7,275.34 153.28,270.48 166.27,265.62 186.24,260.76 194.88,255.9 207.32,251.04 232.92,246.18 254.01,241.32 278.48,236.46 300.55,231.6 323.41,226.74 346.62,221.88 369.01,217.02 392.99,212.16 422.04,207.3 445.98,202.44 466.78,197.58 485.86,192.72 512.07,187.86 536.5,183 555.71,178.14 576.22,173.28 598.07,168.42 620.43,163.56 640.68,158.7 669.47,153.84 674.08,148.98 674.26,144.12 675.55,139.26 680.18,134.4 685.4,129.54 687.85,124.68 698.76,119.82 714.52,114.96 729.64,110.1 732.66,105.24 748.83,100.38 752.32,95.52 761.44,90.66 764,88.74 764,88.74"/>
  <circle cx="764" cy="88.74" r="4" fill="#f59e0b" />
  <text x="52" y="346" text-anchor="start" font-size="11" fill="#636366" font-family="ui-sans-serif, system-ui, -apple-system, BlinkMacSystemFont, 'Segoe UI', sans-serif">2019</text><text x="115.33" y="346" text-anchor="middle" font-size="11" fill="#636366" font-family="ui-sans-serif, system-ui, -apple-system, BlinkMacSystemFont, 'Segoe UI', sans-serif">2020</text><text x="212.82" y="346" text-anchor="middle" font-size="11" fill="#636366" font-family="ui-sans-serif, system-ui, -apple-system, BlinkMacSystemFont, 'Segoe UI', sans-serif">2021</text><text x="310.04" y="346" text-anchor="middle" font-size="11" fill="#636366" font-family="ui-sans-serif, system-ui, -apple-system, BlinkMacSystemFont, 'Segoe UI', sans-serif">2022</text><text x="407.26" y="346" text-anchor="middle" font-size="11" fill="#636366" font-family="ui-sans-serif, system-ui, -apple-system, BlinkMacSystemFont, 'Segoe UI', sans-serif">2023</text><text x="504.48" y="346" text-anchor="middle" font-size="11" fill="#636366" font-family="ui-sans-serif, system-ui, -apple-system, BlinkMacSystemFont, 'Segoe UI', sans-serif">2024</text><text x="601.97" y="346" text-anchor="middle" font-size="11" fill="#636366" font-family="ui-sans-serif, system-ui, -apple-system, BlinkMacSystemFont, 'Segoe UI', sans-serif">2025</text><text x="699.19" y="346" text-anchor="middle" font-size="11" fill="#636366" font-family="ui-sans-serif, system-ui, -apple-system, BlinkMacSystemFont, 'Segoe UI', sans-serif">2026</text>
</svg>
